<?xml version="1.0" encoding="utf-8"?>
<!-- Generator: Adobe Illustrator 27.2.0, SVG Export Plug-In . SVG Version: 6.00 Build 0)  -->
<svg version="1.1" id="Layer_1" xmlns="http://www.w3.org/2000/svg" xmlns:xlink="http://www.w3.org/1999/xlink" x="0px" y="0px"
	 viewBox="0 0 80.8 80.9" style="enable-background:new 0 0 80.8 80.9;" xml:space="preserve">
<style type="text/css">
	.st0{fill:#FFFFFF;}
</style>
<g>
	<path class="st0" d="M18.6,31.4c0-0.4,0-0.8,0-1.2c0-6.8,0-13.7,0-20.5c0-4.8,3.5-8.4,8.3-8.4c14.9,0,29.8,0,44.6,0
		c4.6,0,8.2,3.6,8.2,8.3c0,20.6,0,41.2,0,61.8c0,4.6-3.6,8.2-8.2,8.2c-14.9,0-29.9,0-44.8,0c-4.5,0-8.1-3.7-8.1-8.2
		c0-7.1,0-14.2,0-21.3c0-0.2,0-0.4,0-0.6c1.2,0.9,2.4,1.8,3.5,2.7c0.2,0.2,0.3,0.7,0.3,1c0,5.9,0.1,11.8,0,17.6
		c-0.1,2.5,1.6,5.1,5.1,5c5-0.1,10.1,0,15.1,0c4.2,0,8.4,0,12.6,0c0.4,0,0.9-0.2,1.2-0.5c6.4-6.4,12.7-12.8,19.1-19.2
		c0.3-0.3,0.5-0.8,0.5-1.2c0-15,0-30,0-45.1c0-2.9-1.9-4.8-4.8-4.8c-14.7,0-29.4,0-44,0c-2.9,0-4.8,1.9-4.8,4.8c0,5.9,0,11.9,0,17.8
		c0,0.6-0.2,1-0.7,1.3C20.6,29.7,19.7,30.6,18.6,31.4z M61.4,75.6c0,0.1,0.1,0.1,0.1,0.2c0.5,0,1.1,0,1.6,0c2.8,0,5.5,0,8.3,0
		c2.4,0,4.4-1.7,4.5-4c0.1-3.5,0.1-7,0.1-10.5c0,0-0.1-0.1,0,0C71.1,66.1,66.2,70.9,61.4,75.6z"/>
	<path class="st0" d="M55.9,55.9c-8.6-0.1-15.5-7-15.5-15.6C40.5,31.8,47.5,24.9,56,25c9,0.1,15.6,7.5,15.4,15.8
		C71.3,49.1,64.3,56,55.9,55.9z M67.6,40.5c0-6.5-5.2-11.7-11.7-11.7c-6.4,0-11.7,5.3-11.7,11.7c0,6.4,5.2,11.7,11.7,11.7
		C62.3,52.2,67.6,46.9,67.6,40.5z"/>
	<path class="st0" d="M19.1,40.5c0-5.4,4.3-9.7,9.7-9.7c5.3,0,9.7,4.4,9.7,9.7c0,5.4-4.4,9.7-9.7,9.7C23.4,50.1,19.1,45.8,19.1,40.5
		z M28.8,34.5c-3.3,0-5.9,2.6-6,5.8c0,3.4,2.6,6,5.9,6c3.3,0,5.9-2.6,6-5.8C34.7,37.2,32.2,34.6,28.8,34.5z"/>
	<path class="st0" d="M15.8,40.5c0,4-3.3,7.3-7.3,7.3c-4.1,0-7.4-3.3-7.4-7.5c0-4,3.4-7.3,7.4-7.2C12.5,33.1,15.9,36.5,15.8,40.5z
		 M12,40.4c0-2-1.7-3.6-3.6-3.6c-1.9,0-3.5,1.7-3.5,3.6c0,2,1.6,3.6,3.5,3.6C10.4,44.1,12,42.4,12,40.4z"/>
	<path class="st0" d="M58,38.6c-1.2-1.3-2.4-2.6-3.6-3.9c-0.6-0.6-0.8-1.3-0.5-2.1c0.3-0.7,0.8-1.2,1.6-1.1c0.5,0,1.2,0.2,1.5,0.6
		c2.4,2.3,4.8,4.6,7.2,7c1,1,1,2,0,3c-2.3,2.3-4.7,4.5-7,6.8c-1,1-2.1,1-2.9,0.2c-0.8-0.8-0.7-2,0.3-3c1.2-1.2,2.3-2.4,3.4-3.6
		c0,0-0.2,0-0.4,0c-2.9,0-5.7,0-8.6,0c-1.3,0-2.2-0.8-2.2-1.9c0-1.1,0.9-1.9,2.2-1.9c2.8,0,5.5,0,8.3,0C57.6,38.6,57.9,38.6,58,38.6
		z"/>
</g>
</svg>
