<?xml version="1.0" encoding="utf-8"?>
<!-- Generator: Adobe Illustrator 27.2.0, SVG Export Plug-In . SVG Version: 6.00 Build 0)  -->
<svg version="1.1" id="Layer_1" xmlns="http://www.w3.org/2000/svg" xmlns:xlink="http://www.w3.org/1999/xlink" x="0px" y="0px"
	 viewBox="0 0 80.8 80.9" style="enable-background:new 0 0 80.8 80.9;" xml:space="preserve">
<style type="text/css">
	.st0{fill:#FFFFFF;}
</style>
<g>
	<path class="st0" d="M63.6,56.5c2.1,2.4,2.3,4.6,0.6,6.3c-1.7,1.8-3.9,1.6-6.4-0.5c-1.4,0.9-2.8,1.8-4.2,2.8
		c-1.1,0.8-1.5,1.9-1.5,3.2c0,2.4,0,4.8,0,7.2c0,2.4-1.6,4.1-4,4.1c-4.7,0-9.4,0-14.1,0c-2.4,0-4-1.7-4-4c0-2.1,0-4.3,0-6.4
		c0-2-0.8-3.4-2.6-4.4c-8-4.2-13.1-10.8-15.1-19.7c-3-13.3,4.5-27.4,17.2-32.5c15.2-6.1,32,1.1,37.8,16.4c3.6,9.4,2.4,18.4-3.1,26.8
		c-0.1,0.2-0.3,0.4-0.4,0.6C63.6,56.4,63.6,56.4,63.6,56.5z M61.6,54.5c0.1-0.1,0.2-0.1,0.2-0.2c0.2-0.2,0.3-0.5,0.5-0.7
		c3.8-6.1,5-12.6,3.6-19.6c-2.8-14.3-17-23.5-31.3-20.3c-13.4,3-22.4,15.9-20,29.8c1.5,8.6,6.3,14.9,14,19c0.5,0.3,1.1,0.6,1.5,1
		c0.4,0.4,0.9,0.5,1.5,0.5c6,0,11.9,0,17.9,0c1,0,1.8,0,2.5-0.9c0.3-0.4,0.9-0.6,1.3-0.9c0.9-0.6,1.7-1.1,2.6-1.7
		c-2-1.9-3.8-3.8-5.7-5.7c-1.2-1.2-1.2-1.2-2.8-0.5c-0.7,0.3-1,0.7-1,1.4c0,1.4,0,2.8,0,4.2c-2.3,0.2-4.4,0.5-6.5,0.7
		c-0.2,0-0.5-0.3-0.5-0.5c-0.3-1-0.6-2-0.8-3c-0.2-1.2-0.8-1.7-1.9-1.8c-0.7-0.1-1.1,0-1.5,0.6c-0.8,1.1-1.7,2.2-2.6,3.3
		c-1.9-1.1-3.7-2.1-5.5-3.1c-0.4-0.2-0.4-0.4-0.3-0.8c0.4-0.9,0.6-1.8,1.1-2.6c0.7-1.2,0.5-2.1-0.6-3c-0.4-0.3-0.6-0.5-1.1-0.3
		c-1.4,0.4-2.9,0.8-4.4,1.2c-1-2.1-1.9-4.1-2.8-6.1c1.4-0.9,2.6-1.7,3.9-2.5c0.4-0.2,0.5-0.5,0.4-0.9c-0.1-0.4-0.1-0.8-0.1-1.1
		c0-0.5-0.3-0.8-0.8-1c-1.4-0.5-2.8-1-4.3-1.6c0.4-2.2,0.9-4.4,1.3-6.6c1.2,0.1,2.4,0.1,3.6,0.2c1.2,0.2,2-0.1,2.5-1.3
		c0.2-0.6,0.3-0.9-0.1-1.5c-0.9-1.2-1.7-2.4-2.5-3.6c1.7-1.5,3.4-3,5-4.6c1,0.8,2,1.5,2.9,2.3c0.9,0.9,1.6,0.9,2.7,0.3
		c0.6-0.3,0.8-0.6,0.8-1.3c0-1.4,0-2.8,0-4.3c2.3-0.2,4.4-0.5,6.5-0.7c0.2,0,0.5,0.3,0.6,0.5c0.3,0.9,0.6,1.8,0.8,2.7
		c0.2,1.4,0.8,2,2.2,2.1c0.5,0,0.8,0,1.1-0.4c0.9-1.2,1.8-2.3,2.8-3.5c2,1.1,3.9,2.2,5.9,3.3c-0.6,1.5-1.1,2.8-1.6,4.2
		c-0.1,0.2-0.1,0.6,0,0.8c0.9,1.4,1.4,1.6,3,1.2c0.4-0.1,0.8-0.2,1.3-0.4c0.7-0.2,1.5-0.4,2.3-0.6c1,2.1,1.9,4.1,2.8,6.1
		c-1.1,0.7-2,1.5-3.1,2c-1.2,0.6-1.4,1.4-1.1,2.6c0.1,0.5,0.3,0.8,0.9,1c1.2,0.4,2.4,0.9,3.7,1.3c0.4,0.1,0.5,0.3,0.4,0.8
		c-0.4,1.8-0.8,3.7-1.1,5.5c-0.1,0.4-0.3,0.6-0.7,0.5c-1-0.1-2,0-2.9-0.2c-1.3-0.2-2.1,0.1-2.6,1.4c-0.2,0.5-0.1,0.7,0.2,1
		c1.9,1.9,3.8,3.8,5.7,5.6C61.3,54.2,61.4,54.4,61.6,54.5z M47.1,51.5c-0.7-0.7-1.2-1.2-1.9-1.7c-0.2-0.2-0.6-0.3-0.9-0.2
		c-1,0.2-1.9,0.5-2.9,0.6c-7.7,0.7-13.9-6-12.7-13.6c0.7-4.4,3.2-7.4,7.4-9c4.2-1.6,8.1-1,11.6,1.9c4.2,3.4,5.4,8.9,3.3,13.9
		c-0.1,0.2-0.1,0.7,0,0.8c0.6,0.7,1.2,1.3,1.9,2c0.5-0.9,0.9-1.5,1.3-2.3c0.2-0.5,0.5-0.7,1.1-0.6c1.3,0.1,2.6,0.2,3.9,0.2
		c0.1-0.8,0.3-1.5,0.4-2.2c-1.2-0.5-2.4-0.9-3.6-1.3c-0.6-0.2-0.8-0.5-0.9-1.1c-0.1-1.4-0.3-2.8-0.5-4.2c-0.1-0.5,0.1-0.8,0.5-1
		c1.1-0.7,2.2-1.4,3.3-2.1c-0.3-0.7-0.7-1.4-1-2c-1,0.3-1.9,0.5-2.7,0.8c-1.2,0.5-2.2,0.4-2.9-0.8c-0.3-0.4-0.6-0.8-1-1.1
		c-1.6-1.2-1.8-2.5-0.9-4.3c0.9-1.8,0.8-1.9-1-2.8c-0.1,0-0.1,0-0.3-0.1c-0.8,1-1.6,2-2.4,3.1c-0.3,0.3-0.5,0.5-1,0.4
		c-1.4-0.3-2.9-0.6-4.3-0.9c-0.6-0.1-0.8-0.3-1-0.9c-0.3-1.2-0.7-2.4-1-3.7c-0.8,0.1-1.5,0.2-2.3,0.3c0,1.1-0.1,2,0,3
		c0.1,1.1-0.3,1.8-1.4,2.1c-0.5,0.1-0.9,0.4-1.4,0.6c-0.8,0.4-1.6,1.1-2.4,1c-0.8-0.1-1.5-1-2.2-1.5c-1.6-1.3-1.6-1.3-3.1,0.2
		c0,0,0,0.1-0.1,0.2c0.7,1,1.4,2.1,2.2,3.1c0.3,0.4,0.3,0.7,0.1,1.2c-0.7,1.2-1.4,2.3-2,3.5c-0.3,0.7-0.8,0.9-1.5,0.8
		c-1.2-0.1-2.4-0.1-3.6-0.2c-0.2,0.8-0.3,1.5-0.4,2.2c1.3,0.5,2.5,0.9,3.7,1.3c0.5,0.2,0.7,0.4,0.8,0.9c0.2,1.5,0.4,3,0.5,4.5
		c0,0.3-0.2,0.6-0.4,0.8c-1.1,0.8-2.2,1.5-3.4,2.2c0.3,0.7,0.7,1.4,1,2c1.1-0.3,2.2-0.6,3.2-0.9c0.9-0.3,1.5-0.2,2.1,0.6
		c0.4,0.5,0.8,1,1.3,1.4c1.6,1.2,1.8,2.5,0.8,4.3c-0.9,1.8-0.8,1.9,1.1,2.8c0,0,0.1,0,0.2,0c0.8-1,1.6-2,2.4-3
		c0.3-0.3,0.5-0.5,1-0.4c1.4,0.3,2.9,0.6,4.3,0.9c0.6,0.1,0.8,0.4,1,0.9c0.3,1.2,0.7,2.4,1,3.7c0.8-0.1,1.5-0.2,2.4-0.3
		c0-1.3,0-2.5,0-3.7c0-0.7,0.3-1,0.9-1.2C45.5,52.2,46.2,51.9,47.1,51.5z M40.3,47.6c5,0,9.2-4.1,9.2-9.2c0-4.9-4.1-9.1-9.1-9.1
		c-5,0-9.2,4.1-9.2,9.1C31.2,43.4,35.4,47.6,40.3,47.6z M32.5,70.4c5.8,0,11.4,0,17.1,0c0-1.3,0-2.6,0-3.8c-5.7,0-11.5,0-17.1,0
		C32.5,67.9,32.5,69.1,32.5,70.4z M32.6,73.1c0,0.9,0,1.8,0,2.7c0,0.7,0.6,1.2,1.4,1.2c0.5,0,1.1,0,1.6,0c4.1,0,8.2,0,12.2,0
		c1,0,1.6-0.3,1.7-1.1c0.1-0.9,0-1.9,0-2.8C43.8,73.1,38.2,73.1,32.6,73.1z M47.2,48.1c0.3,0.3,0.7,0.5,0.9,0.8
		c3.9,3.9,7.9,7.9,11.8,11.8c0.4,0.4,1,0.7,1.5,0.6c0.4,0,0.9-0.6,1.1-1c0.3-0.6-0.1-1.1-0.5-1.6c-4.1-4.1-8.3-8.3-12.4-12.4
		c-0.1-0.1-0.2-0.2-0.3-0.3C48.7,46.8,48,47.4,47.2,48.1z"/>
	<path class="st0" d="M75.2,17.9c-2.2,1.8-4.4,3.5-6.5,5.2c-0.6-0.7-1.1-1.3-1.6-2.1c2.2-1.8,4.3-3.5,6.5-5.2
		C74.1,16.6,74.6,17.2,75.2,17.9z"/>
	<path class="st0" d="M5.6,17.9c0.6-0.7,1.1-1.3,1.6-2.1c2.2,1.8,4.3,3.5,6.5,5.2c-0.6,0.7-1.1,1.3-1.6,2.1
		C10,21.4,7.8,19.7,5.6,17.9z"/>
	<path class="st0" d="M9,35.2c0,0.9,0,1.7,0,2.5c-2.6,0-5.1,0-7.7,0c0-0.8,0-1.6,0-2.5C3.8,35.2,6.4,35.2,9,35.2z"/>
	<path class="st0" d="M79.5,35.3c0,0.8,0,1.6,0,2.5c-2.6,0-5.1,0-7.7,0c0-0.8,0-1.6,0-2.5C74.3,35.3,76.9,35.3,79.5,35.3z"/>
	<path class="st0" d="M4.5,55.9c-0.5-0.8-0.9-1.5-1.4-2.3c2.2-1.3,4.3-2.6,6.5-3.9c0.4,0.7,0.9,1.4,1.4,2.3
		C8.9,53.3,6.8,54.5,4.5,55.9z"/>
	<path class="st0" d="M77.6,53.7c-0.5,0.8-0.9,1.5-1.4,2.3c-2.2-1.3-4.3-2.6-6.5-3.9c0.5-0.8,0.9-1.5,1.3-2.3
		C73.2,51,75.3,52.3,77.6,53.7z"/>
	<path class="st0" d="M25.5,10.9c-0.5,0.5-1.1,1.1-1.6,1.6c-1.7-1.7-3.4-3.5-5.1-5.2c0.5-0.4,1.1-1,1.7-1.5
		C22,7.4,23.7,9.1,25.5,10.9z"/>
	<path class="st0" d="M56.9,12.5c-0.5-0.5-1.1-1.1-1.7-1.6c1.7-1.7,3.4-3.5,5.2-5.2c0.5,0.6,1.1,1.2,1.6,1.7
		C60.3,9.1,58.6,10.8,56.9,12.5z"/>
	<path class="st0" d="M41.6,7.7c-0.9,0-1.7,0-2.5,0c0-2.1,0-4.2,0-6.4c0.8,0,1.6,0,2.5,0C41.6,3.4,41.6,5.5,41.6,7.7z"/>
</g>
</svg>
