<?xml version="1.0" encoding="utf-8"?>
<!-- Generator: Adobe Illustrator 27.2.0, SVG Export Plug-In . SVG Version: 6.00 Build 0)  -->
<svg version="1.1" id="Layer_1" xmlns="http://www.w3.org/2000/svg" xmlns:xlink="http://www.w3.org/1999/xlink" x="0px" y="0px"
	 viewBox="0 0 50.3 52.3" style="enable-background:new 0 0 50.3 52.3;" xml:space="preserve">
<style type="text/css">
	.st0{fill:url(#SVGID_1_);}
	.st1{fill:url(#SVGID_00000037659613272389978110000015043183809977641659_);}
</style>
<linearGradient id="SVGID_1_" gradientUnits="userSpaceOnUse" x1="6.4628" y1="44.8618" x2="43.8629" y2="7.4616">
	<stop  offset="0" style="stop-color:#5D3289"/>
	<stop  offset="1" style="stop-color:#C70065"/>
</linearGradient>
<path class="st0" d="M25.2,12C17.4,12,11,18.4,11,26.2c0,7.8,6.4,14.2,14.2,14.2S39.3,34,39.3,26.2S33,12,25.2,12z M25.2,37.8
	c-6.4,0-11.7-5.2-11.7-11.7s5.2-11.7,11.7-11.7s11.7,5.2,11.7,11.7S31.6,37.8,25.2,37.8z M48.9,31.2l-3.1-2.3c0.2-1.8,0.2-3.6,0-5.5
	l3.1-2.3c1.4-1.1,1.8-3,0.9-4.5l-4.1-7.1C44.9,8,43,7.4,41.4,8.1l-3.5,1.5c-1.5-1.1-3-2-4.7-2.7l-0.5-3.8C32.5,1.3,31,0,29.2,0
	l-8.2,0c-1.8,0-3.2,1.3-3.4,3.1l-0.5,3.8c-1.7,0.7-3.3,1.6-4.7,2.7L8.9,8.1C7.3,7.4,5.4,8,4.5,9.5l-4.1,7.1
	c-0.9,1.5-0.5,3.5,0.9,4.5l3.1,2.3c-0.2,1.8-0.2,3.6,0,5.5l-3.1,2.3c-1.4,1.1-1.8,3-0.9,4.5l4.1,7.1c0.9,1.5,2.8,2.1,4.4,1.5
	l3.5-1.5c1.5,1.1,3,2,4.7,2.7l0.5,3.8c0.2,1.7,1.7,3.1,3.4,3.1h8.2c1.8,0,3.2-1.3,3.4-3.1l0.5-3.8c1.7-0.7,3.3-1.6,4.7-2.7l3.5,1.5
	c1.6,0.7,3.5,0.1,4.4-1.5l4.1-7.1C50.7,34.2,50.3,32.2,48.9,31.2L48.9,31.2z M47.7,34.5l-4.1,7.1c-0.3,0.4-0.8,0.6-1.2,0.4l-4.2-1.8
	c-0.4-0.2-0.9-0.1-1.3,0.2c-1.6,1.3-3.4,2.4-5.3,3.1c-0.4,0.2-0.7,0.6-0.8,1L30.2,49c-0.1,0.5-0.5,0.9-1,0.9h-8.2
	c-0.5,0-0.9-0.4-1-0.9l-0.5-4.5c-0.1-0.5-0.4-0.9-0.8-1c-1.9-0.7-3.7-1.8-5.3-3.1c-0.2-0.2-0.5-0.3-0.8-0.3c-0.2,0-0.3,0-0.5,0.1
	l-4.2,1.8c-0.5,0.2-1,0-1.2-0.4l-4.1-7.1c-0.3-0.4-0.1-1,0.3-1.3l3.7-2.8c0.4-0.3,0.6-0.7,0.5-1.2c-0.3-2-0.3-4.1,0-6.1
	c0.1-0.5-0.1-0.9-0.5-1.2l-3.7-2.8c-0.4-0.3-0.5-0.8-0.3-1.3l4.1-7.1c0.3-0.4,0.8-0.6,1.2-0.4l4.2,1.8c0.4,0.2,0.9,0.1,1.3-0.2
	c1.6-1.3,3.4-2.4,5.3-3.1c0.4-0.2,0.7-0.6,0.8-1l0.5-4.5c0.1-0.5,0.5-0.9,1-0.9h8.2c0.5,0,0.9,0.4,1,0.9l0.5,4.5
	c0.1,0.5,0.4,0.9,0.8,1c1.9,0.7,3.7,1.8,5.3,3.1c0.4,0.3,0.9,0.4,1.3,0.2l4.2-1.8c0.5-0.2,1,0,1.2,0.4l4.1,7.1
	c0.3,0.4,0.1,1-0.3,1.3l-3.7,2.8c-0.4,0.3-0.6,0.7-0.5,1.2c0.3,2,0.3,4.1,0,6.1c-0.1,0.5,0.1,0.9,0.5,1.2l3.7,2.8
	C47.8,33.5,48,34,47.7,34.5L47.7,34.5z"/>
<g>
	
		<linearGradient id="SVGID_00000067236336320135518580000012294296385638829227_" gradientUnits="userSpaceOnUse" x1="21.2312" y1="29.6942" x2="31.3535" y2="19.5719">
		<stop  offset="0" style="stop-color:#5D3289"/>
		<stop  offset="1" style="stop-color:#C70065"/>
	</linearGradient>
	<path style="fill:url(#SVGID_00000067236336320135518580000012294296385638829227_);" d="M21.1,18.4h9.1v0
		c-0.5,0.9-0.8,1.4-0.9,1.5h-2.4c0.3,0.4,0.6,1,0.7,1.6h2.6c0,0,0,0,0,0c-0.6,1-0.9,1.5-0.9,1.5h-1.7c0,0.5-0.2,1.1-0.6,1.8
		c-0.5,0.7-1,1.2-1.5,1.4c-0.9,0.5-1.7,0.7-2.5,0.7v0c0,0.1,0.2,0.4,0.6,0.9l4.5,6.2v0.3c0,0,0,0,0,0h-2c-3.6-4.7-5.3-7.1-5.3-7.1
		v-1.4l0-0.1c0.3,0.1,0.7,0.1,1.1,0.1c2,0,3.2-0.7,3.7-2.2c0.1-0.2,0.1-0.4,0.1-0.7h-5.4c0,0,0,0,0-0.1c0.6-1,0.9-1.5,0.9-1.5h4.3v0
		c-0.3-0.6-0.7-1-1.4-1.3c-0.5-0.2-1-0.3-1.4-0.3h-2.4v-0.1C20.7,18.9,21,18.4,21.1,18.4z"/>
</g>
</svg>
