<?xml version="1.0" encoding="utf-8"?>
<!-- Generator: Adobe Illustrator 27.2.0, SVG Export Plug-In . SVG Version: 6.00 Build 0)  -->
<svg version="1.1" id="Layer_1" xmlns="http://www.w3.org/2000/svg" xmlns:xlink="http://www.w3.org/1999/xlink" x="0px" y="0px"
	 viewBox="0 0 60.3 38.5" style="enable-background:new 0 0 60.3 38.5;" xml:space="preserve">
<style type="text/css">
	.st0{fill:url(#SVGID_1_);}
</style>
<linearGradient id="SVGID_1_" gradientUnits="userSpaceOnUse" x1="13.36" y1="31.4825" x2="47.4148" y2="-2.5723">
	<stop  offset="0" style="stop-color:#5D3289"/>
	<stop  offset="1" style="stop-color:#C70065"/>
</linearGradient>
<path class="st0" d="M60.3,15.6l-0.4,0.3L51.1,1.2c-0.3-0.6-0.9-1-1.5-1.1c-0.6-0.2-1.3-0.1-1.9,0.3l-3.3,2
	c-0.9,0.6-1.4,1.7-1.1,2.8l0.1,0.4L42.3,6c-0.6,0.3-1.2,0.3-1.8,0.1l-6.9-2.6c-1.5-0.5-3-0.7-4.5-0.3l-2.3,0.5
	c-0.2,0.1-0.5,0.1-0.7,0.2L26,4h-2c-1.2,0-2.3,0.2-3.5,0.5l-2.3,0.7H17l0-0.5c0.1-0.9-0.4-1.8-1.2-2.3l-3.3-2
	C12,0,11.3-0.1,10.7,0.1c-0.6,0.2-1.2,0.6-1.5,1.1L0.4,15.8c-0.3,0.6-0.4,1.2-0.3,1.9c0.2,0.6,0.6,1.2,1.1,1.5l3.3,2
	c0.6,0.3,1.2,0.4,1.9,0.3c0.6-0.2,1.2-0.6,1.5-1.1l0.3-0.4l0.5,0.2l2.7,1.7l2.6,4.2l-0.1,0.3c-0.8,1.4-0.4,3.1,0.8,4.1l0.2,0.1
	c0.4,0.3,0.9,0.6,1.4,0.7l0.3,0.1l0.1,0.3c0.2,0.8,0.6,1.5,1.2,2c0.8,0.6,1.8,0.9,2.8,0.7l0.4-0.1l0.2,0.4c0.2,0.5,0.6,1,1,1.4
	c0.8,0.7,1.9,0.9,2.9,0.7l0.3-0.1l0.2,0.3c0.2,0.3,0.4,0.6,0.7,0.8c0.7,0.5,1.5,0.8,2.4,0.7c0.9-0.1,1.6-0.5,2.2-1.2l0.6-0.8l1.9,1
	c0.6,0.3,1.3,0.5,2.1,0.5c1.4,0,2.7-0.6,3.5-1.7l0.2-0.2l0.3,0.1c1.5,0.3,3-0.4,3.6-1.7c0.1-0.2,0.2-0.4,0.3-0.6l0.1-0.4l0.4,0
	c0.5,0.1,1,0,1.5-0.1c0.9-0.3,1.7-0.9,2.2-1.8c0.3-0.5,0.4-1.1,0.4-1.7l0-0.4l0.4-0.1c0.9-0.3,1.7-0.9,2.2-1.7
	c0.9-1.6,0.5-3.2-1.1-4.7l-0.3-0.3l0.2-0.3c0.6-1.2,1.6-1.9,2.3-2.2l0.4-0.2l0.2,0.4c0.4,0.6,0.9,1,1.5,1.1c0.6,0.2,1.3,0.1,1.9-0.3
	l3.3-2c0.6-0.3,1-0.9,1.1-1.5c0.2-0.6,0.1-1.3-0.3-1.9L60.3,15.6L60.3,15.6z M6.5,19.5c-0.1,0.2-0.3,0.3-0.5,0.4c-0.1,0-0.1,0-0.2,0
	c-0.1,0-0.3,0-0.4-0.1l-3.3-2c-0.4-0.2-0.5-0.7-0.3-1.1L10.6,2c0.1-0.2,0.3-0.3,0.5-0.4c0.2-0.1,0.4,0,0.6,0.1l3.3,2
	c0.4,0.2,0.5,0.7,0.3,1.1L6.5,19.5z M17,29.6c-0.1,0-0.1,0-0.2,0c-0.3,0-0.6-0.1-0.8-0.2h-0.3l0-0.3c-0.3-0.3-0.5-0.6-0.6-1
	c0-0.4,0.1-0.8,0.3-1.1v0l2.1-2.7c0.5-0.6,1.5-0.8,2.2-0.2l0.2,0.1c0.7,0.5,0.8,1.5,0.2,2.2L18,29C17.8,29.4,17.4,29.6,17,29.6z
	 M21.5,32.1c-0.1,0.2-0.2,0.2-0.2,0.2c-0.4,0.3-0.8,0.4-1.2,0.4c-0.4,0-0.8-0.1-1.1-0.4l0,0c-0.3-0.3-0.5-0.6-0.6-1L18.2,31l0.3-0.2
	c0.3-0.2,0.6-0.4,0.8-0.7l2.1-2.7c0.3-0.4,0.5-0.8,0.6-1.3l0.1-0.3l0.3-0.1c0.5-0.1,1,0.1,1.4,0.4c0.4,0.4,0.7,0.9,0.7,1.5
	c0,0.1,0,0.3,0,0.4c-0.1,0.3-0.2,0.5-0.4,0.7L21.5,32.1z M25.9,34.5c-0.1,0.1-0.2,0.2-0.3,0.3c-0.3,0.2-0.7,0.4-1.1,0.4
	c-0.4,0-0.8-0.1-1.2-0.4c-0.4-0.3-0.6-0.7-0.7-1.2l0-0.2l0.2-0.3l2.7-3.4c0.2-0.2,0.4-0.5,0.5-0.8l0.1-0.2l0.2-0.1
	c0.5-0.1,1.1,0,1.5,0.4c0.4,0.4,0.7,0.9,0.7,1.4c0,0.5-0.2,0.8-0.4,1.2L25.9,34.5z M31.7,33.7l-2.1,2.6c-0.3,0.3-0.6,0.5-1.1,0.6
	c-0.1,0-0.1,0-0.2,0c-0.4,0-0.7-0.1-1-0.3c-0.1-0.1-0.2-0.2-0.3-0.4l-0.2-0.3l0.2-0.3l2.3-2.9c0.3-0.4,0.5-0.8,0.6-1.2l0.1-0.4
	l0.4,0c0.3,0,0.6,0.1,0.9,0.3c0.4,0.3,0.6,0.8,0.6,1.2C32.1,33.1,31.9,33.4,31.7,33.7z M37.2,35.9c-0.5,0.3-1,0.5-1.6,0.5
	c-0.4,0-0.9-0.1-1.3-0.3h0l-1.7-0.9l0.4-0.5c0.2-0.3,0.4-0.6,0.5-1l0.2-0.6l4.1,2.2L37.2,35.9z M49.2,26.9L49.2,26.9
	c-0.4,0.7-1.2,1.1-2,1c-0.3,0-0.5-0.1-0.7-0.2l-8.1-4.5C38.2,23,37.9,23,37.7,23c-0.2,0.1-0.4,0.2-0.5,0.4c-0.2,0.4-0.1,0.9,0.3,1.1
	l8.1,4.5c0.1,0.1,0.3,0.2,0.4,0.2l0.3,0.1l0,0.3c0,0.4-0.1,0.7-0.2,1c-0.2,0.5-0.7,0.8-1.2,1c-0.5,0.2-1,0.1-1.5-0.1l-8.2-4.3
	c-0.4-0.2-0.9-0.1-1.1,0.3c-0.1,0.2-0.1,0.4-0.1,0.6c0.1,0.2,0.2,0.4,0.4,0.5l7.5,4l0,0.3c0,0.2-0.1,0.4-0.2,0.6
	c-0.3,0.6-0.9,0.9-1.5,0.9c-0.3,0-0.5-0.1-0.8-0.2l-6.2-3.3L33.2,31c-0.2-0.3-0.4-0.6-0.7-0.8c-0.6-0.5-1.4-0.7-2.1-0.7l-0.3,0
	L30,29.2c-0.2-0.5-0.6-1-1.1-1.4c-0.6-0.5-1.4-0.8-2.3-0.8l-0.4,0l-0.1-0.4c-0.2-0.7-0.6-1.3-1.2-1.8c-0.8-0.6-1.7-0.9-2.7-0.7
	l-0.3,0.1l-0.2-0.3c-0.2-0.4-0.5-0.7-0.8-0.9l-0.2-0.1c-1.4-1.1-3.4-0.9-4.5,0.5l-1.2,1.5l-2.4-3.9c-0.1-0.1-0.2-0.2-0.3-0.3L9,18.5
	l7-11.7h2.3c0.1,0,0.2,0,0.2,0l4-1.2l-1.2,1.3c-0.4,0.5-0.8,1-1.1,1.5L18,12.1c-0.7,1.1-0.4,2.7,0.7,3.4c1.9,1.2,4.2,1.2,6-0.1
	l5-3.5l10.9,5.6l7.6,6.6C49.8,25.4,49.5,26.2,49.2,26.9z M50.8,18.8c-1.1,0.5-2,1.3-2.6,2.3l-0.3,0.5l-6.3-5.5
	c-0.1,0-0.1-0.1-0.2-0.1l-11.4-5.8c-0.3-0.2-0.6-0.1-0.9,0L23.8,14c-1.3,0.9-2.9,0.9-4.2,0.1c-0.4-0.2-0.5-0.8-0.2-1.1l2.3-3.7
	c1.3-2,3.2-3.4,5.5-3.9l2.3-0.5c1.2-0.3,2.4-0.2,3.6,0.2L40,7.7C41,8,42.1,8,43.1,7.5l1.2-0.6l7,11.6L50.8,18.8z M58.2,17.8
	L58.2,17.8l-3.3,2c-0.1,0.1-0.3,0.1-0.4,0.1c-0.1,0-0.1,0-0.2,0c-0.2,0-0.4-0.2-0.5-0.4L45,4.9c-0.2-0.4-0.1-0.9,0.3-1.1l3.3-2
	c0.4-0.2,0.9-0.1,1.1,0.3l8.8,14.6C58.7,17.1,58.6,17.6,58.2,17.8z"/>
</svg>
