<?xml version="1.0" encoding="utf-8"?>
<!-- Generator: Adobe Illustrator 27.2.0, SVG Export Plug-In . SVG Version: 6.00 Build 0)  -->
<svg version="1.1" id="Layer_1" xmlns="http://www.w3.org/2000/svg" xmlns:xlink="http://www.w3.org/1999/xlink" x="0px" y="0px"
	 viewBox="0 0 59.5 41.5" style="enable-background:new 0 0 59.5 41.5;" xml:space="preserve">
<style type="text/css">
	.st0{fill:url(#SVGID_1_);}
	.st1{fill:url(#SVGID_00000125571077201231032440000016941451360280961720_);}
</style>
<g>
	<g>
		<linearGradient id="SVGID_1_" gradientUnits="userSpaceOnUse" x1="21.8687" y1="16.4233" x2="32.9768" y2="5.3153">
			<stop  offset="0" style="stop-color:#5D3289"/>
			<stop  offset="0.9944" style="stop-color:#C70065"/>
		</linearGradient>
		<path class="st0" d="M25.7,0h10v0c-0.6,1-0.9,1.6-1,1.7H32c0.4,0.5,0.6,1.1,0.7,1.8h2.8c0,0,0,0,0,0c-0.6,1.1-1,1.6-1,1.6h-1.8
			c0,0.5-0.3,1.2-0.7,2c-0.6,0.8-1.1,1.3-1.6,1.5c-1,0.5-1.9,0.8-2.8,0.8v0c0,0.1,0.2,0.4,0.7,1l4.9,6.8v0.3c0,0,0,0,0,0h-2.2
			c-3.9-5.2-5.9-7.8-5.9-7.8V8.3l0-0.1c0.3,0.1,0.7,0.1,1.2,0.1c2.2,0,3.5-0.8,4.1-2.4c0.1-0.2,0.1-0.5,0.1-0.7h-5.9c0,0,0,0,0-0.1
			c0.7-1.1,1-1.6,1-1.6h4.7v0c-0.3-0.6-0.8-1.1-1.6-1.4c-0.6-0.2-1.1-0.3-1.5-0.3h-2.6V1.6C25.3,0.5,25.7,0,25.7,0z"/>
	</g>
	
		<linearGradient id="SVGID_00000128462687769294278250000008104978138562924723_" gradientUnits="userSpaceOnUse" x1="5.625" y1="46.2811" x2="43.3623" y2="8.5438">
		<stop  offset="0" style="stop-color:#5D3289"/>
		<stop  offset="0.9944" style="stop-color:#C70065"/>
	</linearGradient>
	<path style="fill:url(#SVGID_00000128462687769294278250000008104978138562924723_);" d="M10.9,15.7H1.1c-0.7,0-1.1,0.4-1.1,1.1
		v23.3c0,0.7,0.4,1.1,1.1,1.1h9.8c0.7,0,1.1-0.4,1.1-1.1v-2.7L22.3,41c0.7,0.2,1.6,0.5,2.6,0.5c1,0,1.9-0.2,2.9-0.6l29.5-11.1
		c1.3-0.4,2.2-1.8,2.2-3.3c0-0.4,0-0.8-0.2-1.3l0,0c-0.7-1.9-2.3-3-3.4-3.6c-1.6-0.8-3.4-0.8-5-0.1l-9.7,3.7l0-0.2
		c-0.2-2.4-2.4-4.4-4.8-4.4H23.6c-0.9,0-1.6,0-2.1-0.3l-3.3-1.6c-1.1-0.5-2.1-0.7-3.1-0.7c-1,0-2.1,0.2-3,0.6L12,18.8v-2
		C12,16.2,11.5,15.7,10.9,15.7z M9.8,39.1H2.2V17.9h7.6V39.1z M12.6,20.8c0.6-0.4,1.5-0.6,2.4-0.6c0.8,0,1.4,0.1,2.2,0.5l3.2,1.6
		c1.1,0.5,2.2,0.5,3.2,0.5h12.8c1.4,0,2.7,1.3,2.7,2.7c0,0.1,0,0.4-0.1,0.7c0,0.1-0.1,0.1-0.1,0.2c-0.1,0.1-0.1,0.2-0.1,0.4l0,0.1
		c-0.1,0.3-0.3,0.5-0.4,0.6c-0.5,0.5-1.1,0.8-1.9,0.8h-14c-0.7,0-1.1,0.4-1.1,1.1s0.4,1.1,1.1,1.1h14c1.4,0,2.4-0.4,3.4-1.4
		c0.3-0.3,0.6-0.8,0.8-1.3l0,0l0,0l10.9-4.1c1.2-0.4,2.3-0.3,3.2,0.1c1.1,0.5,1.8,1.3,2.4,2.5l0,0.1v0.4c0.1,0.7-0.3,1.2-0.8,1.4
		l0,0L26.8,39h-0.1c-0.5,0.2-1.1,0.4-2,0.4c-0.6,0-1.4-0.1-1.8-0.2l-11.1-3.9v-14L12.6,20.8z"/>
</g>
</svg>
