<?xml version="1.0" encoding="utf-8"?>
<!-- Generator: Adobe Illustrator 27.1.1, SVG Export Plug-In . SVG Version: 6.00 Build 0)  -->
<svg version="1.1" id="Layer_1" xmlns="http://www.w3.org/2000/svg" xmlns:xlink="http://www.w3.org/1999/xlink" x="0px" y="0px"
	 viewBox="0 0 150 150" style="enable-background:new 0 0 150 150;" xml:space="preserve">
<style type="text/css">
	.st0{fill:#FFFFFF;}
</style>
<g>
	<path class="st0" d="M87.7,142.7c-8.4,0-16.7,0-25.1,0c-1.1,0-2.1,0.6-2.5,1.7c-0.6,1.5,0.7,3.3,2.2,3.3c4.2,0,8.4,0,12.7,0
		c4.1,0,8.3-0.1,12.4,0c1.3,0,1.9-0.6,2.4-1.5C90.6,144.8,89.4,142.7,87.7,142.7z"/>
	<path class="st0" d="M98.6,60.4c-1.4-1-1.5-2-0.8-3.6c0.9-1.9,0.8-2,3-2c0.6,0,1.2,0,1.7,0c0.1,0,0.3,0,0.4,0
		c1.2-0.2,1.7-0.7,1.9-1.8c0.1-0.6,0.2-1.3,0.2-1.9c0-3.1,0-6.2-0.2-9.3c-0.1-1.4-0.8-1.9-2.2-2c-1.1,0-2.3,0-3.4,0
		c-0.4,0-0.6-0.1-0.8-0.5c-0.3-0.9-0.7-1.9-1.1-2.8c-0.2-0.5-0.2-0.9,0.3-1.3c0.8-0.7,1.6-1.5,2.2-2.3c0.8-0.9,0.8-2,0.1-3
		c-0.2-0.3-0.5-0.6-0.8-0.9c-2.2-2.1-4.4-4.3-6.6-6.4c-1.2-1.1-1.9-1.2-3.2-0.2c-0.9,0.7-1.7,1.5-2.6,2.3c-0.2,0.2-0.6,0.3-0.9,0.2
		c-0.9-0.3-1.8-0.7-2.7-1c-0.5-0.2-0.6-0.4-0.7-0.9c0-1.2-0.1-2.4-0.2-3.6c-0.1-1.4-0.6-2-2-2.1c-3.4-0.1-6.9-0.1-10.3-0.1
		c-1.7,0-2.6,1.2-2.6,2.8c0,1,0,2,0,3c0,0.2-0.2,0.6-0.4,0.7c-1,0.5-2.1,0.9-3.1,1.3c-0.2,0.1-0.6,0-0.8-0.2
		c-0.8-0.7-1.6-1.6-2.4-2.3c-1.1-1-1.8-1-3-0.2c-0.4,0.3-0.7,0.5-1,0.9c-2.2,2.2-4.4,4.5-6.6,6.8c-0.9,1-1,1.7-0.1,2.8
		c0.7,1,1.6,1.8,2.4,2.7c0.3,0.3,0.4,0.5,0.2,1c-0.4,0.9-0.8,1.9-1.1,2.8c-0.2,0.4-0.4,0.5-0.8,0.5c-1.1,0-2.2,0-3.2,0
		c-1.5,0.1-2.5,0.9-2.5,2.4c0,3.4-0.1,6.7,0,10.1c0,1.6,1,2.5,2.6,2.5c1,0,2,0.1,2.9,0c0.7,0,0.9,0.2,1.1,0.8
		c0.3,0.8,0.6,1.6,0.9,2.4c0.2,0.5,0.1,0.8-0.3,1.2c-0.9,0.9-1.7,1.8-2.5,2.9c-0.7,0.9-0.6,1.6,0.2,2.4c0.6,0.7,1.3,1.5,1.9,2.2
		c1.9,1.9,3.8,3.8,5.8,5.5c1.1,1,1.9,0.9,3-0.1c0.8-0.7,1.6-1.6,2.4-2.3c0.2-0.2,0.6-0.3,0.9-0.2c1,0.3,1.9,0.8,2.9,1.2
		c0.5,0.2,0.6,0.4,0.6,0.9c0,1.2,0,2.3,0.1,3.5c0.1,1.3,1,2.2,2.3,2.2c3.6,0,7.3,0,10.9-0.1c0.3,0,0.8-0.3,1-0.6
		c0.3-0.4,0.5-0.9,0.6-1.5c0.1-1.2,0.2-2.4,0.2-3.6c0-0.5,0.2-0.7,0.7-0.9c0.9-0.3,1.7-0.6,2.5-0.9c0.4-0.2,0.7-0.1,1.1,0.2
		c0.8,0.8,1.7,1.6,2.6,2.3c0.8,0.7,1.7,0.7,2.6,0.1c0.3-0.2,0.7-0.4,1-0.7c2.2-2.2,4.4-4.3,6.6-6.5c0.1-0.1,0.3-0.3,0.4-0.5
		c0.6-0.9,0.7-1.9,0-2.8C99.6,61.3,99.1,60.8,98.6,60.4z M94.7,51.5c-0.9,2.2-1.8,4.5-2.8,6.7c-0.4,1-0.3,1.9,0.4,2.7
		c0.7,0.8,1.5,1.6,2.2,2.3c-1.2,1.2-2.3,2.3-3.6,3.6c-0.2-0.2-0.5-0.5-0.8-0.7c-0.7-0.6-1.4-1.3-2.2-1.8c-0.4-0.2-1-0.3-1.5-0.2
		c-1,0.3-1.9,0.8-2.9,1.2c-1.2,0.5-2.4,1-3.6,1.3c-1.8,0.5-2.4,1.2-2.4,3.1c0,0.8,0,1.7,0,2.6c-1.7,0-3.3,0-5,0c-0.1-1-0.1-2-0.2-3
		c-0.1-1.2-0.7-2-1.9-2.4c-2.1-0.7-4.1-1.6-6-2.5c-1.2-0.6-2.3-0.5-3.3,0.4c-0.7,0.7-1.4,1.3-2.1,1.9c-1.2-1.2-2.3-2.3-3.5-3.5
		c0.7-0.8,1.5-1.7,2.3-2.7c0.5-0.6,0.6-1.2,0.3-2c-1-2.4-1.9-4.8-2.9-7.2c-0.4-0.9-1.1-1.5-2.1-1.5c-1-0.1-2.1-0.1-3.1-0.2
		c0-1.6,0-3.2,0-5c0.9,0,1.8,0,2.7,0c1.5-0.1,2.4-0.7,2.9-2.2c0.7-2.1,1.6-4.1,2.5-6.1c0.5-1.1,0.4-1.9-0.4-2.7
		c-0.7-0.8-1.4-1.6-2-2.3c1.2-1.2,2.3-2.3,3.5-3.5c0.8,0.7,1.6,1.4,2.5,2.1c0.7,0.6,1.5,0.7,2.4,0.4c2.3-1,4.7-1.9,7.1-2.9
		c0.9-0.4,1.2-1.1,1.4-2c0.1-1.1,0.2-2.1,0.2-3.3c1.6,0,3.2,0,5,0c0,0.8,0,1.7,0,2.5c-0.1,1.5,0.6,2.5,2.1,3
		c2.1,0.8,4.1,1.7,6.1,2.6c1.1,0.5,2,0.4,2.9-0.4c0.8-0.7,1.6-1.4,2.3-2c1.2,1.2,2.3,2.3,3.5,3.5c-0.5,0.5-1.1,1.2-1.7,1.8
		c-1.3,1.4-1.3,2.1-0.5,3.9c0.8,1.7,1.5,3.4,2.1,5.2c0.7,2,1.2,2.4,3.3,2.5c0.8,0,1.6,0,2.4,0c0,1.7,0,3.3,0,5
		c-1.1,0.1-2.2,0.1-3.2,0.2C95.8,49.9,95.1,50.5,94.7,51.5z"/>
	<path class="st0" d="M74.9,37.3c-5.2-0.2-9.7,4.3-9.9,9.8c-0.2,4.9,3.9,9.9,9.5,10.1c5.9,0.2,10.3-4.6,10.4-9.3
		C85,41.8,81,37.5,74.9,37.3z M75,52.3c-2.6,0-5-2.4-5-5c0-2.7,2.3-5,5-5c2.8,0,5,2.2,5,5C80,49.9,77.6,52.3,75,52.3z"/>
	<path class="st0" d="M118.9,36.3C114.6,18.4,98.2,4,80.2,2.5c-3.4-0.3-6.8-0.4-10.1-0.1c-4.8,0.4-9.4,1.8-13.9,3.9
		c-16,7.3-26.1,23.1-26.4,39.3c-0.1,6.4,1.1,12.5,3.8,18.2c2.2,4.6,5,8.8,7.7,13.1c2.7,4.3,5.4,8.6,8,13c0.2,0.4,0.4,0.8,0.6,1.3
		c-0.1,0-0.1,0-0.1,0c1.9,3.9,4.7,10.5,4.9,15.3l0,0c0.1,0.8,0.1,1.5,0.2,2.3c0.2,8.8,0.3,17.6,0.4,26.4c0,1.4,1.2,2.6,2.6,2.6
		c11.4,0,22.7,0,34.1,0c1.2,0,2.3-1.1,2.3-2.3c0.1-7.4,0.2-14.9,0.3-22.3c0-2.7,0.3-5.4,0.7-8l0,0c0,0,0.1-0.4,0.2-1
		c0-0.3,0.1-0.6,0.2-0.8c0.1-0.7,0.3-1.5,0.5-2.3c0-0.1,0-0.2,0.1-0.2c0,0,0,0,0-0.1c0.9-3.7,2.5-8.9,4.9-11.9c1-1.8,2-3.6,3.1-5.4
		c3.2-5.2,6.6-10.4,9.8-15.6C120.1,58,121.5,47.5,118.9,36.3z M89.4,132.7c-9.6,0-19.2,0-28.8,0c0-1.6,0-3.3,0-5
		c8.1,0,16.2,0,24.4,0c0-1.7,0-3.3,0-5c-8.1,0-16.2,0-24.4,0c0-1.8,0-3.5,0-5.3c9.6,0,19.2,0,28.8,0
		C89.4,122.5,89.4,127.5,89.4,132.7z M110,65.1c-3,5-6.2,9.8-9.3,14.7c-3.8,6.1-7,12.5-8.7,19.5c-1,4.2-1.8,8.4-1.9,12.6
		c0,0.1,0,0.2,0,0.4c-4.2,0-8.3,0-12.5,0c0-0.4,0-0.7,0-1c0-8.8,0-17.5,0-26.3c0-1.2-0.7-1.9-1.6-2.4c-0.9-0.5-1.7-0.2-2.5,0.4
		c-0.7,0.5-0.9,1.1-0.9,1.9c0,8.8,0,17.6,0,26.4c0,0.3,0,0.6,0,1c-4.2,0-8.3,0-12.5,0c-0.2-1.4-0.3-2.8-0.5-4.2
		c-0.8-7.8-3.1-15.2-6.8-22.2c-2.7-5.2-6-10-9.1-14.9c-2.5-3.8-4.9-7.7-6.6-12c-1.7-4.2-2.3-8.6-2.2-13.1
		c0.3-17.8,12.4-32.2,28.4-37.1C68.5,7.2,73.7,6.9,79,7.4c17.9,1.7,30.3,14.2,34.5,28.5C116.5,46.1,115.4,55.9,110,65.1z"/>
</g>
</svg>
