<?xml version="1.0" encoding="utf-8"?>
<!-- Generator: Adobe Illustrator 27.1.1, SVG Export Plug-In . SVG Version: 6.00 Build 0)  -->
<svg version="1.1" id="Layer_1" xmlns="http://www.w3.org/2000/svg" xmlns:xlink="http://www.w3.org/1999/xlink" x="0px" y="0px"
	 viewBox="0 0 150 150" style="enable-background:new 0 0 150 150;" xml:space="preserve">
<style type="text/css">
	.st0{fill:#FFFFFF;}
</style>
<path class="st0" d="M84.8,62.2l-10,9.8c0.9,1.1,2,1.9,2.6,3.1c0,0.1,0.1,0.2,0.1,0.3c0.5,1.3-0.7,2.7-2.1,2.6
	c-0.3,0-0.6-0.1-0.8-0.2c-0.8-0.3-1.4-1.2-2-1.9C65,68.2,57.3,60.5,49.9,52.7c-1.1-1.1-2.4-3.9-1.9-4.4c2.1-2.3,3.3,0.5,4.7,1.5
	c0.3,0.2,0.6,0.5,0.7,0.5c5.7-5.5,11.5-10.8,17-16.4c7.2-7.2,14.3-14.4,21.4-21.7c2-2,3.9-3.4,7.1-2.6c0.9,0.2,2.4-0.7,3.2-1.5
	c8.4-8.1,8.4-8.1,16.7,0.3c1.1,1.1,2.4,2.2,3.1,3.6c1.5,2.9,0.6,5.4-1.7,7.6c-2.6,2.6-5.9,4.8-4.9,9.5c0.3,1.2-1.4,3-2.5,4.3
	c-3.8,4.1-7.8,8-11.7,12.1c-0.1,0.1-0.1,0.2-0.2,0.4c2.4,2.2,5,4.4,7.2,6.8c8.3,9.2,12.3,20,12.1,32.3c0,2,0.3,4,0.9,5.9
	c2.4,6.9,0.2,14.1-5.5,18.3c-2.9,2.1-5.5,4.5-8.2,6.8c-3.7,3-7.5,6-11.8,9.5c1.8,0.1,3.2,0.3,4.5,0.3c12,0,24-0.1,36,0.1
	c8.6,0.1,13.8,7.3,11,14.9c-1.7,4.5-5.7,7-11.5,7c-21.1,0-42.2,0-63.3,0c-19.4,0-38.7,0-58.1,0c-8.6,0-14-7.1-11.3-14.7
	c1.6-4.7,5.4-7.2,11.3-7.2c11.7-0.1,23.5,0,35.2,0c1.4,0,2.9,0,4.6-0.5c-11.5-7.7-19.7-17.5-23.2-31.2c-2.3,0-4.4,0.2-6.5-0.1
	c-0.2,0-0.4-0.1-0.6-0.2c-1.3-0.7-1.3-2.7-0.1-3.4c0.2-0.1,0.4-0.2,0.6-0.2c13.1-0.1,26.2-0.1,39.2,0c0.1,0,0.3,0,0.4,0.1
	c1.4,0.6,1.5,2.6,0.2,3.4c-0.3,0.2-0.6,0.3-0.9,0.3c-3,0.3-6.1,0.1-9.7,0.1c4,7.5,9.7,12,17.7,13.3c7.6,1.3,14.3-1.1,19.8-6.4
	c0.7-0.7,0.7-2.4,0.7-3.7c0-4.5,1.6-8.2,4.4-11.7c1.2-1.4,2-3.8,1.7-5.5C96.5,72.4,92.3,66.3,84.8,62.2z M75.3,130
	c-7.6,0-15.2,0-22.8,0c-12.8,0-25.6,0-38.4,0c-4.8,0-7.7,2.7-7.7,6.8c0,4,3,6.7,7.7,6.9c1.1,0,2.1,0,3.2,0c38.3,0,76.6,0,114.9,0
	c1.7,0,3.5,0.1,5.2-0.1c3.8-0.5,6.4-3.5,6.3-7c-0.1-4.1-3.1-6.6-8.3-6.6C115.3,130,95.3,130,75.3,130z M71.1,67.8
	c13.7-13.1,27.3-26.2,41-39.3c-5.3-5.1-10.4-10-14.4-13.8c-13.5,12.9-27.2,26-41,39.2C61.9,58.9,66.9,63.7,71.1,67.8z M35.4,94.2
	c3.5,15.8,17.9,29,33.9,31.1c14,1.8,25.6-3.1,35.4-12.3c-4.1-2.8-7.7-5.3-11.4-7.9C76.1,116.8,61,113.7,50,95.9
	c-0.5-0.8-1.8-1.6-2.7-1.6C43.4,94.1,39.6,94.2,35.4,94.2z M102.4,80.9c4.9,0.8,9.1,1.4,13.7,2.1c-0.6-14.2-6.6-25.5-17.8-33.5
	c-3.5,3.4-6.7,6.5-10,9.8C96.3,64.4,100.8,71.9,102.4,80.9z M106.7,107.8c6.1,0.2,11.2-4.8,11.4-11c0.1-6.1-4.9-11.4-11-11.4
	c-5.9-0.1-10.9,4.8-11.2,10.8C95.7,102.3,100.7,107.7,106.7,107.8z M118.9,15.2c-3.3-3.2-6.1-6-8.7-8.5c-2.1,2.1-4.4,4.4-6.5,6.5
	c2.8,2.8,5.7,5.6,8.1,8.1C114.2,19.2,116.6,17.2,118.9,15.2z"/>
</svg>
