<?xml version="1.0" encoding="utf-8"?>
<!-- Generator: Adobe Illustrator 27.1.1, SVG Export Plug-In . SVG Version: 6.00 Build 0)  -->
<svg version="1.1" id="Layer_1" xmlns="http://www.w3.org/2000/svg" xmlns:xlink="http://www.w3.org/1999/xlink" x="0px" y="0px"
	 viewBox="0 0 150 150" style="enable-background:new 0 0 150 150;" xml:space="preserve">
<style type="text/css">
	.st0{fill:#FFFFFF;}
</style>
<path class="st0" d="M148.9,73.9c0.6,41.2-32.4,74.6-73.1,75c-41,0.4-74.1-32.4-74.6-72.9C0.6,34.8,33.6,1.5,74.4,1.1
	C115.2,0.8,148.2,33.5,148.9,73.9z M128.4,118.3c9.5-11.9,14.6-25.5,15.3-40.8c-9.2,0-18.2,0-27.3,0c-0.3,11.4-1.8,22.5-5.1,33.2
	c3,1.2,5.8,2.3,8.6,3.5C122.7,115.6,125.5,117,128.4,118.3z M6.4,77.6c0,6.2,1.7,16.1,5.6,24.9c2.5,5.7,5.7,11,9.6,15.7
	c5.8-2.6,11.4-5.1,17.1-7.6c-1.6-5.3-2.9-10.7-3.6-16.3c-0.7-5.6-1.1-11.1-1.7-16.8C24.5,77.6,15.4,77.6,6.4,77.6z M116.4,72.4
	c9.1,0,18.2,0,27.3,0c-0.7-15.3-5.8-28.8-15.2-40.6c-5.8,2.5-11.5,5-17.2,7.6C114.6,50.1,116.1,61.1,116.4,72.4z M38.6,39.5
	c-5.8-2.6-11.4-5.1-17.2-7.6C12,43.6,6.9,57.2,6.3,72.4c9.2,0,18.2,0,27.3,0C33.9,61.1,35.4,50.1,38.6,39.5z M106.4,109.3
	c3.1-10.4,4.7-21,4.8-31.7c-11.3,0-22.5,0-33.7,0c0,9,0,17.9,0,26.9C87.4,104.7,97,106.4,106.4,109.3z M72.4,104.5c0-9,0-18,0-26.9
	c-11.3,0-22.4,0-33.7,0c0.2,10.8,1.7,21.3,4.8,31.6C53,106.4,62.6,104.7,72.4,104.5z M111.3,72.4c-0.2-10.8-1.7-21.3-4.8-31.7
	c-9.5,2.9-19.1,4.6-28.9,4.9c0,9,0,17.9,0,26.8C88.8,72.4,100,72.4,111.3,72.4z M72.4,72.4c0-9,0-17.9,0-26.8
	c-9.9-0.3-19.4-1.9-28.9-4.8c-3.1,10.3-4.6,20.8-4.8,31.6C50,72.4,61.2,72.4,72.4,72.4z M72.4,6.4c-0.4,0-0.7,0.1-0.9,0.1
	c-0.1,0-0.2,0.1-0.4,0.1c-4.4,0.9-8.1,3.1-11.4,6c-5.2,4.7-8.9,10.4-11.8,16.7c-1,2.2-1.9,4.4-2.8,6.6c5.2,2.2,24,5.3,27.3,4.5
	C72.4,29.1,72.4,17.8,72.4,6.4z M104.8,35.9c0-0.2-0.1-0.3-0.1-0.5c-2.2-5.7-4.8-11.2-8.4-16.1c-3.1-4.3-6.8-8.1-11.6-10.6
	c-2.2-1.2-4.5-2-7-2.3c0,11.4,0,22.7,0,34C82.5,40.9,97.8,38.4,104.8,35.9z M72.4,143.6c0-11.4,0-22.7,0-34
	c-9.3,0.2-18.3,1.8-27.2,4.5c0.1,0.2,0.1,0.4,0.1,0.5c1.9,4.9,4.1,9.6,7,14c3,4.5,6.5,8.6,11.2,11.6
	C66.2,141.9,69.1,143.2,72.4,143.6z M77.6,143.6c0.5-0.1,0.9-0.1,1.3-0.2c4.4-0.9,8.1-3.1,11.4-6c5.2-4.7,8.9-10.4,11.8-16.7
	c1-2.1,1.9-4.3,2.8-6.5c-9-2.8-18-4.4-27.3-4.6C77.6,121,77.6,132.2,77.6,143.6z M56.2,8.9c-12.1,3.4-22.4,9.7-31.3,19
	c5.2,2.3,10.2,4.5,15.3,6.7C43.9,24.8,48.6,16,56.2,8.9z M93.8,8.9c7.5,7.1,12.2,15.9,15.9,25.6c5.1-2.2,10.1-4.4,15.3-6.7
	C116.2,18.6,105.9,12.3,93.8,8.9z M25,122.1c5.7,7.4,22.9,17.8,31.3,19c-7.7-7.1-12.4-15.9-16.1-25.6
	C35.2,117.7,30.2,119.9,25,122.1z M93.8,141.1c12.1-3.4,22.4-9.7,31.2-18.9c-5.2-2.3-10.2-4.4-15.3-6.6
	C106,125.3,101.3,134,93.8,141.1z"/>
</svg>
