<?xml version="1.0" encoding="utf-8"?>
<!-- Generator: Adobe Illustrator 27.2.0, SVG Export Plug-In . SVG Version: 6.00 Build 0)  -->
<svg version="1.1" id="Layer_1" xmlns="http://www.w3.org/2000/svg" xmlns:xlink="http://www.w3.org/1999/xlink" x="0px" y="0px"
	 viewBox="0 0 49.7 48.1" style="enable-background:new 0 0 49.7 48.1;" xml:space="preserve">
<style type="text/css">
	.st0{fill:url(#SVGID_1_);}
	.st1{fill:url(#SVGID_00000139293623357903595330000017548741290135286146_);}
	.st2{fill:url(#SVGID_00000020388270435541036150000009644750880316589448_);}
</style>
<g>
	<g>
		<linearGradient id="SVGID_1_" gradientUnits="userSpaceOnUse" x1="4.7" y1="52.1394" x2="36.232" y2="20.6074">
			<stop  offset="0" style="stop-color:#5E338A"/>
			<stop  offset="0.2001" style="stop-color:#5E338A"/>
			<stop  offset="0.2838" style="stop-color:#722A81"/>
			<stop  offset="0.4892" style="stop-color:#9F2274"/>
			<stop  offset="0.6474" style="stop-color:#BB1E6A"/>
			<stop  offset="0.7384" style="stop-color:#C71D68"/>
			<stop  offset="1" style="stop-color:#C71D68"/>
		</linearGradient>
		<path class="st0" d="M9.1,26.6H0.9C0.4,26.6,0,27,0,27.5V47c0,0.6,0.4,0.9,0.9,0.9h8.2c0.5,0,0.9-0.4,0.9-0.9v-2.3l8.6,3
			c0.5,0.2,1.4,0.4,2.2,0.4c0.8,0,1.6-0.2,2.4-0.5l24.7-9.3c1.1-0.4,1.9-1.5,1.9-2.7c0-0.3,0-0.7-0.2-1.1l0,0
			c-0.6-1.6-1.9-2.5-2.9-3c-1.4-0.6-2.8-0.7-4.2-0.1l-8.1,3.1l0-0.1c-0.2-2-2-3.6-4-3.6H19.7c-0.7,0-1.3,0-1.8-0.2l-2.7-1.3
			c-0.9-0.4-1.7-0.6-2.6-0.6c-0.8,0-1.7,0.2-2.5,0.5L10,29.2v-1.7C10,27,9.6,26.6,9.1,26.6z M8.2,46.1H1.8V28.4h6.4V46.1z
			 M10.6,30.9c0.5-0.3,1.3-0.5,2-0.5c0.6,0,1.2,0.1,1.9,0.4l2.6,1.3c0.9,0.4,1.8,0.4,2.7,0.4h10.7c1.2,0,2.2,1.1,2.2,2.2
			c0,0.1,0,0.3-0.1,0.6c0,0.1-0.1,0.1-0.1,0.2c-0.1,0.1-0.1,0.2-0.1,0.3l0,0c-0.1,0.2-0.2,0.4-0.3,0.5c-0.4,0.4-1,0.6-1.6,0.6H18.7
			c-0.5,0-0.9,0.4-0.9,0.9c0,0.6,0.4,0.9,0.9,0.9h11.7c1.2,0,2-0.4,2.9-1.2c0.3-0.3,0.5-0.7,0.7-1.1l0,0l0,0l9.1-3.4
			c1-0.3,1.9-0.3,2.7,0.1c0.9,0.4,1.5,1.1,2,2.1l0,0v0.3c0.1,0.6-0.3,1-0.7,1.2l0,0L22.4,46h-0.1c-0.4,0.2-0.9,0.3-1.6,0.3
			c-0.5,0-1.1-0.1-1.5-0.2l-9.3-3.3V31.2L10.6,30.9z"/>
	</g>
	<g>
		<g>
			<g>
				
					<linearGradient id="SVGID_00000171685310614758109240000013013438164194662546_" gradientUnits="userSpaceOnUse" x1="23.1023" y1="16.0798" x2="31.593" y2="7.5891">
					<stop  offset="0" style="stop-color:#5E338A"/>
					<stop  offset="0.2001" style="stop-color:#5E338A"/>
					<stop  offset="0.2838" style="stop-color:#722A81"/>
					<stop  offset="0.4892" style="stop-color:#9F2274"/>
					<stop  offset="0.6474" style="stop-color:#BB1E6A"/>
					<stop  offset="0.7384" style="stop-color:#C71D68"/>
					<stop  offset="1" style="stop-color:#C71D68"/>
				</linearGradient>
				<path style="fill:url(#SVGID_00000171685310614758109240000013013438164194662546_);" d="M23,6.6h7.6v0
					c-0.5,0.8-0.7,1.2-0.8,1.3h-2c0.3,0.4,0.5,0.8,0.6,1.4h2.2c0,0,0,0,0,0c-0.5,0.8-0.7,1.2-0.8,1.2h-1.4c0,0.4-0.2,0.9-0.5,1.5
					c-0.4,0.6-0.9,1-1.3,1.2c-0.7,0.4-1.4,0.6-2.1,0.6v0c0,0.1,0.2,0.3,0.5,0.7l3.8,5.2V20c0,0,0,0,0,0h-1.7c-3-3.9-4.5-5.9-4.5-5.9
					v-1.2l0,0c0.3,0,0.6,0.1,0.9,0.1c1.7,0,2.7-0.6,3.1-1.8c0.1-0.2,0.1-0.4,0.1-0.6h-4.5c0,0,0,0,0,0c0.5-0.8,0.8-1.2,0.8-1.2h3.6
					v0c-0.2-0.5-0.6-0.8-1.2-1.1c-0.4-0.2-0.8-0.2-1.1-0.2h-2v0C22.7,7,22.9,6.6,23,6.6z"/>
			</g>
		</g>
		<g>
			
				<linearGradient id="SVGID_00000106110028463338993400000006845128990075551625_" gradientUnits="userSpaceOnUse" x1="16.9719" y1="22.7454" x2="35.8098" y2="3.9076">
				<stop  offset="0" style="stop-color:#5E338A"/>
				<stop  offset="0.2001" style="stop-color:#5E338A"/>
				<stop  offset="0.2838" style="stop-color:#722A81"/>
				<stop  offset="0.4892" style="stop-color:#9F2274"/>
				<stop  offset="0.6474" style="stop-color:#BB1E6A"/>
				<stop  offset="0.7384" style="stop-color:#C71D68"/>
				<stop  offset="1" style="stop-color:#C71D68"/>
			</linearGradient>
			<path style="fill:url(#SVGID_00000106110028463338993400000006845128990075551625_);" d="M26.4,26.7c-7.3,0-13.3-6-13.3-13.3
				S19,0,26.4,0s13.3,6,13.3,13.3S33.7,26.7,26.4,26.7z M26.4,1.6c-6.4,0-11.7,5.2-11.7,11.7S19.9,25,26.4,25s11.7-5.2,11.7-11.7
				S32.8,1.6,26.4,1.6z"/>
		</g>
	</g>
</g>
</svg>
