<?xml version="1.0" encoding="utf-8"?>
<!-- Generator: Adobe Illustrator 27.2.0, SVG Export Plug-In . SVG Version: 6.00 Build 0)  -->
<svg version="1.1" id="Layer_1" xmlns="http://www.w3.org/2000/svg" xmlns:xlink="http://www.w3.org/1999/xlink" x="0px" y="0px"
	 viewBox="0 0 392 492.8" style="enable-background:new 0 0 392 492.8;" xml:space="preserve">
<style type="text/css">
	.st0{fill:url(#SVGID_1_);}
	.st1{fill:url(#SVGID_00000149357813736683967920000010660877233826175629_);}
	.st2{fill:url(#SVGID_00000060726281552283803460000005054598259170771383_);}
	.st3{fill:url(#SVGID_00000099649136541385675180000001650351764692304564_);}
	.st4{fill:url(#SVGID_00000154396367449778325060000016498465040019099064_);}
	.st5{fill:url(#SVGID_00000042005883003675593100000016900846102824382626_);}
	.st6{fill:url(#SVGID_00000137830473924216789920000005278165124681798075_);}
</style>
<g>
	<g>
		<linearGradient id="SVGID_1_" gradientUnits="userSpaceOnUse" x1="31.118" y1="372.4322" x2="360.8828" y2="42.6674">
			<stop  offset="0" style="stop-color:#5D3289"/>
			<stop  offset="1" style="stop-color:#C70065"/>
		</linearGradient>
		<path class="st0" d="M133.4,0c-3.8,0.4-7.2,2.7-8.9,6.1c-2.1,4.1-4,9.2-6.8,15.8c-2.9,6.5-6.4,14-10.9,21
			c-8.9,13.9-19.7,24.3-33.9,24.3H11.2v0C5,67.2,0,72.2,0,78.4v174.2c0,3,1.1,5.9,3.2,8c2.1,2.1,5,3.3,8,3.3c3,0,5.9-1.2,8-3.3
			c2.1-2.1,3.3-5,3.2-8v-163h50.4c24.9,0,42.1-17.8,52.9-34.7c5.4-8.4,9.5-17,12.6-24.2c1.8-4.1,2.4-5.7,3.5-8.4h108.5
			c1.1,2.7,1.7,4.3,3.5,8.4c3.1,7.1,7.2,15.7,12.6,24.2c10.7,16.9,27.9,34.7,52.9,34.7h50.4v156.8c0,66.5-30.4,116.6-68.1,153.7
			c-36.2,35.5-78.4,57.7-105.5,69c-27.2-11.3-69.4-33.4-105.5-69C52.8,363,22.4,313,22.4,246.4c0-3-1.1-5.9-3.2-8
			c-2.1-2.1-5-3.3-8-3.3c-3,0-5.9,1.2-8,3.3c-2.1,2.1-3.3,5-3.2,8C0,319.8,34,376,74.7,416c40.7,40,87.9,64.3,117.1,76
			c2.7,1.1,5.7,1.1,8.4,0c29.1-11.7,76.4-36,117.1-76C358,376,392,319.8,392,246.4v-168c0-6.2-5-11.2-11.2-11.2h-61.6
			c-14.3,0-25.1-10.4-33.9-24.3c-4.4-7-8-14.5-10.9-21c-2.9-6.5-4.8-11.6-6.8-15.8c-1.9-3.8-5.8-6.1-10-6.1H134.4
			C134,0,133.7,0,133.4,0L133.4,0z"/>
	</g>
	<g>
		
			<linearGradient id="SVGID_00000183930446428152980470000015917960303161134523_" gradientUnits="userSpaceOnUse" x1="145.2139" y1="341.2339" x2="244.0867" y2="242.3611">
			<stop  offset="0" style="stop-color:#5D3289"/>
			<stop  offset="1" style="stop-color:#C70065"/>
		</linearGradient>
		<path style="fill:url(#SVGID_00000183930446428152980470000015917960303161134523_);" d="M194.7,382.4c-11,0-20-9-20-20V221.2
			c0-11,9-20,20-20s20,9,20,20v141.2C214.7,373.4,205.7,382.4,194.7,382.4z"/>
	</g>
	<g>
		
			<linearGradient id="SVGID_00000171691384173422078230000002618202103411538307_" gradientUnits="userSpaceOnUse" x1="179.805" y1="182.4062" x2="208.0856" y2="154.1255">
			<stop  offset="0" style="stop-color:#5D3289"/>
			<stop  offset="1" style="stop-color:#C70065"/>
		</linearGradient>
		<path style="fill:url(#SVGID_00000171691384173422078230000002618202103411538307_);" d="M193.9,188.3c-0.7,0-1.3,0-2-0.1
			c-0.6-0.1-1.3-0.2-1.9-0.3s-1.3-0.3-1.9-0.5c-0.6-0.2-1.2-0.4-1.8-0.7c-0.6-0.2-1.2-0.5-1.8-0.8c-0.6-0.3-1.1-0.7-1.7-1
			c-0.6-0.4-1.1-0.8-1.6-1.2c-0.5-0.4-1-0.9-1.5-1.3c-0.5-0.5-0.9-1-1.3-1.5c-0.4-0.5-0.8-1-1.2-1.6c-0.4-0.5-0.7-1.1-1-1.7
			c-0.3-0.6-0.6-1.2-0.8-1.8s-0.5-1.2-0.7-1.8s-0.4-1.3-0.5-1.9c-0.1-0.6-0.2-1.3-0.3-1.9c-0.1-0.6-0.1-1.3-0.1-2s0-1.3,0.1-2
			c0.1-0.6,0.2-1.3,0.3-1.9c0.1-0.6,0.3-1.3,0.5-1.9c0.2-0.6,0.4-1.2,0.7-1.8c0.2-0.6,0.5-1.2,0.8-1.8c0.3-0.6,0.6-1.1,1-1.7
			c0.4-0.5,0.8-1.1,1.2-1.6c0.4-0.5,0.9-1,1.3-1.5s0.9-0.9,1.5-1.3c0.5-0.4,1-0.8,1.6-1.2c0.5-0.4,1.1-0.7,1.7-1
			c0.6-0.3,1.2-0.6,1.8-0.8c0.6-0.2,1.2-0.5,1.8-0.7c0.6-0.2,1.3-0.4,1.9-0.5c0.6-0.1,1.3-0.2,1.9-0.3c1.3-0.1,2.6-0.1,3.9,0
			c0.6,0.1,1.3,0.2,1.9,0.3c0.6,0.1,1.3,0.3,1.9,0.5c0.6,0.2,1.2,0.4,1.8,0.7c0.6,0.2,1.2,0.5,1.8,0.8c0.6,0.3,1.1,0.6,1.7,1
			c0.6,0.4,1.1,0.8,1.6,1.2c0.5,0.4,1,0.9,1.5,1.3s0.9,1,1.3,1.5c0.4,0.5,0.8,1,1.2,1.6c0.4,0.5,0.7,1.1,1,1.7
			c0.3,0.6,0.6,1.2,0.8,1.8c0.2,0.6,0.5,1.2,0.7,1.8c0.2,0.6,0.4,1.3,0.5,1.9c0.1,0.6,0.2,1.3,0.3,1.9c0.1,0.7,0.1,1.3,0.1,2
			s0,1.3-0.1,2c-0.1,0.7-0.2,1.3-0.3,1.9c-0.1,0.6-0.3,1.3-0.5,1.9s-0.4,1.2-0.7,1.8s-0.5,1.2-0.8,1.8c-0.3,0.6-0.6,1.1-1,1.7
			c-0.4,0.5-0.8,1.1-1.2,1.6c-0.4,0.5-0.9,1-1.3,1.5c-0.5,0.5-0.9,0.9-1.5,1.3c-0.5,0.4-1,0.8-1.6,1.2c-0.5,0.4-1.1,0.7-1.7,1
			c-0.6,0.3-1.2,0.6-1.8,0.8s-1.2,0.5-1.8,0.7c-0.6,0.2-1.3,0.4-1.9,0.5c-0.6,0.1-1.3,0.2-1.9,0.3
			C195.3,188.2,194.6,188.3,193.9,188.3z"/>
	</g>
	<g>
		
			<linearGradient id="SVGID_00000141416140968270842140000017848585101971590052_" gradientUnits="userSpaceOnUse" x1="208.8022" y1="343.175" x2="297.675" y2="254.3022">
			<stop  offset="0" style="stop-color:#5D3289"/>
			<stop  offset="1" style="stop-color:#C70065"/>
		</linearGradient>
		<path style="fill:url(#SVGID_00000141416140968270842140000017848585101971590052_);" d="M253.2,379.3c-11,0-20-9-20-20V238.2
			c0-11,9-20,20-20s20,9,20,20v121.2C273.2,370.4,264.3,379.3,253.2,379.3z"/>
	</g>
	<g>
		
			<linearGradient id="SVGID_00000123434313365823503110000018188925755243223188_" gradientUnits="userSpaceOnUse" x1="238.3932" y1="199.3474" x2="266.6739" y2="171.0667">
			<stop  offset="0" style="stop-color:#5D3289"/>
			<stop  offset="1" style="stop-color:#C70065"/>
		</linearGradient>
		<path style="fill:url(#SVGID_00000123434313365823503110000018188925755243223188_);" d="M252.5,205.2c-0.7,0-1.3,0-2-0.1
			c-0.6-0.1-1.3-0.2-1.9-0.3s-1.3-0.3-1.9-0.5c-0.6-0.2-1.2-0.4-1.8-0.7c-0.6-0.2-1.2-0.5-1.8-0.8c-0.6-0.3-1.1-0.7-1.7-1
			c-0.6-0.4-1.1-0.8-1.6-1.2c-0.5-0.4-1-0.9-1.5-1.3c-0.5-0.5-0.9-1-1.3-1.5c-0.4-0.5-0.8-1-1.2-1.6c-0.4-0.5-0.7-1.1-1-1.7
			c-0.3-0.6-0.6-1.2-0.8-1.8s-0.5-1.2-0.7-1.8s-0.4-1.3-0.5-1.9c-0.1-0.6-0.2-1.3-0.3-1.9c-0.1-0.6-0.1-1.3-0.1-2s0-1.3,0.1-2
			c0.1-0.6,0.2-1.3,0.3-1.9c0.1-0.6,0.3-1.3,0.5-1.9c0.2-0.6,0.4-1.2,0.7-1.8c0.2-0.6,0.5-1.2,0.8-1.8c0.3-0.6,0.6-1.1,1-1.7
			c0.4-0.5,0.8-1.1,1.2-1.6c0.4-0.5,0.9-1,1.3-1.5s0.9-0.9,1.5-1.3c0.5-0.4,1-0.8,1.6-1.2c0.5-0.4,1.1-0.7,1.7-1
			c0.6-0.3,1.2-0.6,1.8-0.8c0.6-0.2,1.2-0.5,1.8-0.7c0.6-0.2,1.3-0.4,1.9-0.5c0.6-0.1,1.3-0.2,1.9-0.3c1.3-0.1,2.6-0.1,3.9,0
			c0.6,0.1,1.3,0.2,1.9,0.3c0.6,0.1,1.3,0.3,1.9,0.5c0.6,0.2,1.2,0.4,1.8,0.7c0.6,0.2,1.2,0.5,1.8,0.8c0.6,0.3,1.1,0.6,1.7,1
			c0.6,0.4,1.1,0.8,1.6,1.2c0.5,0.4,1,0.9,1.5,1.3s0.9,1,1.3,1.5c0.4,0.5,0.8,1,1.2,1.6c0.4,0.5,0.7,1.1,1,1.7
			c0.3,0.6,0.6,1.2,0.8,1.8c0.2,0.6,0.5,1.2,0.7,1.8c0.2,0.6,0.4,1.3,0.5,1.9c0.1,0.6,0.2,1.3,0.3,1.9c0.1,0.7,0.1,1.3,0.1,2
			s0,1.3-0.1,2c-0.1,0.7-0.2,1.3-0.3,1.9c-0.1,0.6-0.3,1.3-0.5,1.9s-0.4,1.2-0.7,1.8s-0.5,1.2-0.8,1.8c-0.3,0.6-0.6,1.1-1,1.7
			c-0.4,0.5-0.8,1.1-1.2,1.6c-0.4,0.5-0.9,1-1.3,1.5c-0.5,0.5-0.9,0.9-1.5,1.3c-0.5,0.4-1,0.8-1.6,1.2c-0.5,0.4-1.1,0.7-1.7,1
			c-0.6,0.3-1.2,0.6-1.8,0.8s-1.2,0.5-1.8,0.7c-0.6,0.2-1.3,0.4-1.9,0.5c-0.6,0.1-1.3,0.2-1.9,0.3
			C253.8,205.2,253.2,205.2,252.5,205.2z"/>
	</g>
	<g>
		
			<linearGradient id="SVGID_00000007427851743206108860000017598528054825781149_" gradientUnits="userSpaceOnUse" x1="111.6983" y1="354.0407" x2="173.8599" y2="291.8792">
			<stop  offset="0" style="stop-color:#5D3289"/>
			<stop  offset="1" style="stop-color:#C70065"/>
		</linearGradient>
		<path style="fill:url(#SVGID_00000007427851743206108860000017598528054825781149_);" d="M142.8,379.3c-7.7,0-14-6.3-14-14v-84.8
			c0-7.7,6.3-14,14-14c7.7,0,14,6.3,14,14v84.8C156.8,373.1,150.5,379.3,142.8,379.3z"/>
	</g>
	<g>
		
			<linearGradient id="SVGID_00000021089775762542740200000009272377317563847343_" gradientUnits="userSpaceOnUse" x1="132.3956" y1="253.4413" x2="152.1763" y2="233.6606">
			<stop  offset="0" style="stop-color:#5D3289"/>
			<stop  offset="1" style="stop-color:#C70065"/>
		</linearGradient>
		<path style="fill:url(#SVGID_00000021089775762542740200000009272377317563847343_);" d="M142.3,257.5c-0.5,0-0.9,0-1.4-0.1
			c-0.5,0-0.9-0.1-1.4-0.2c-0.4-0.1-0.9-0.2-1.3-0.3c-0.4-0.1-0.9-0.3-1.3-0.5c-0.4-0.2-0.8-0.4-1.2-0.6c-0.4-0.2-0.8-0.5-1.2-0.7
			c-0.4-0.3-0.8-0.5-1.1-0.8c-0.4-0.3-0.7-0.6-1-0.9c-0.3-0.3-0.6-0.7-0.9-1c-0.3-0.3-0.6-0.7-0.8-1.1c-0.3-0.4-0.5-0.8-0.7-1.2
			c-0.2-0.4-0.4-0.8-0.6-1.2c-0.2-0.4-0.3-0.9-0.5-1.3c-0.1-0.4-0.2-0.9-0.3-1.3c-0.1-0.4-0.2-0.9-0.2-1.4c0-0.5-0.1-0.9-0.1-1.4
			c0-0.5,0-0.9,0.1-1.4c0-0.4,0.1-0.9,0.2-1.4c0.1-0.4,0.2-0.9,0.3-1.3c0.1-0.4,0.3-0.9,0.5-1.3c0.2-0.4,0.4-0.8,0.6-1.2
			c0.2-0.4,0.4-0.8,0.7-1.2c0.3-0.4,0.5-0.8,0.8-1.1c0.3-0.4,0.6-0.7,0.9-1s0.7-0.6,1-0.9c0.3-0.3,0.7-0.6,1.1-0.8
			c0.4-0.3,0.8-0.5,1.2-0.7c0.4-0.2,0.8-0.4,1.2-0.6c0.4-0.2,0.9-0.3,1.3-0.5c0.4-0.1,0.9-0.2,1.3-0.3c0.4-0.1,0.9-0.2,1.4-0.2
			c0.9-0.1,1.8-0.1,2.8,0c0.4,0,0.9,0.1,1.4,0.2c0.4,0.1,0.9,0.2,1.3,0.3c0.4,0.1,0.9,0.3,1.3,0.5c0.4,0.2,0.8,0.4,1.2,0.6
			c0.4,0.2,0.8,0.4,1.2,0.7c0.4,0.3,0.8,0.5,1.1,0.8c0.4,0.3,0.7,0.6,1,0.9s0.6,0.7,0.9,1c0.3,0.3,0.6,0.7,0.8,1.1
			c0.3,0.4,0.5,0.8,0.7,1.2c0.2,0.4,0.4,0.8,0.6,1.2c0.2,0.4,0.3,0.9,0.5,1.3c0.1,0.4,0.2,0.9,0.3,1.3c0.1,0.4,0.2,0.9,0.2,1.4
			c0,0.5,0.1,0.9,0.1,1.4c0,0.5,0,0.9-0.1,1.4c0,0.5-0.1,0.9-0.2,1.4c-0.1,0.4-0.2,0.9-0.3,1.3c-0.1,0.4-0.3,0.9-0.5,1.3
			c-0.2,0.4-0.4,0.8-0.6,1.2c-0.2,0.4-0.4,0.8-0.7,1.2c-0.3,0.4-0.5,0.8-0.8,1.1c-0.3,0.4-0.6,0.7-0.9,1c-0.3,0.3-0.7,0.6-1,0.9
			c-0.3,0.3-0.7,0.6-1.1,0.8c-0.4,0.3-0.8,0.5-1.2,0.7c-0.4,0.2-0.8,0.4-1.2,0.6c-0.4,0.2-0.9,0.3-1.3,0.5c-0.4,0.1-0.9,0.2-1.3,0.3
			c-0.4,0.1-0.9,0.2-1.4,0.2C143.2,257.5,142.7,257.5,142.3,257.5z"/>
	</g>
</g>
</svg>
