<?xml version="1.0" encoding="utf-8"?>
<!-- Generator: Adobe Illustrator 27.2.0, SVG Export Plug-In . SVG Version: 6.00 Build 0)  -->
<svg version="1.1" id="Layer_1" xmlns="http://www.w3.org/2000/svg" xmlns:xlink="http://www.w3.org/1999/xlink" x="0px" y="0px"
	 viewBox="0 0 56 46" style="enable-background:new 0 0 56 46;" xml:space="preserve">
<style type="text/css">
	.st0{fill:url(#SVGID_1_);}
	.st1{fill:url(#SVGID_00000105405940718279423010000012592815487909390985_);}
	.st2{fill:url(#SVGID_00000138539434631590308820000007983109550817907080_);}
	.st3{fill:url(#SVGID_00000066484899117684289600000005657362955614338479_);}
</style>
<g>
	<g>
		<g>
			<g>
				<linearGradient id="SVGID_1_" gradientUnits="userSpaceOnUse" x1="12.7871" y1="32.4835" x2="23.6032" y2="21.6675">
					<stop  offset="0" style="stop-color:#5E338A"/>
					<stop  offset="0.2001" style="stop-color:#5E338A"/>
					<stop  offset="0.2838" style="stop-color:#722A81"/>
					<stop  offset="0.4892" style="stop-color:#9F2274"/>
					<stop  offset="0.6474" style="stop-color:#BB1E6A"/>
					<stop  offset="0.7384" style="stop-color:#C71D68"/>
					<stop  offset="1" style="stop-color:#C71D68"/>
				</linearGradient>
				<path class="st0" d="M12.6,20.4h9.7v0c-0.6,1-0.9,1.5-1,1.6h-2.6c0.4,0.5,0.6,1.1,0.7,1.7h2.8c0,0,0,0,0,0
					c-0.6,1.1-0.9,1.6-1,1.6h-1.8c0,0.5-0.3,1.2-0.7,2c-0.6,0.8-1.1,1.3-1.6,1.5c-0.9,0.5-1.8,0.8-2.7,0.8v0c0,0.1,0.2,0.4,0.6,0.9
					l4.8,6.6v0.3c0,0,0,0,0,0h-2.1c-3.8-5-5.7-7.6-5.7-7.6v-1.5l0-0.1c0.3,0.1,0.7,0.1,1.2,0.1c2.1,0,3.5-0.8,4-2.4
					c0.1-0.2,0.1-0.5,0.1-0.7h-5.8c0,0,0,0,0-0.1c0.6-1.1,1-1.6,1-1.6h4.6v0c-0.3-0.6-0.8-1.1-1.5-1.4c-0.5-0.2-1-0.3-1.5-0.3h-2.6
					V22C12.3,20.9,12.6,20.4,12.6,20.4z"/>
			</g>
		</g>
		<g>
			
				<linearGradient id="SVGID_00000058553155046813806170000000426031901306861738_" gradientUnits="userSpaceOnUse" x1="4.9746" y1="40.9715" x2="28.9715" y2="16.9746">
				<stop  offset="0" style="stop-color:#5E338A"/>
				<stop  offset="0.2001" style="stop-color:#5E338A"/>
				<stop  offset="0.2838" style="stop-color:#722A81"/>
				<stop  offset="0.4892" style="stop-color:#9F2274"/>
				<stop  offset="0.6474" style="stop-color:#BB1E6A"/>
				<stop  offset="0.7384" style="stop-color:#C71D68"/>
				<stop  offset="1" style="stop-color:#C71D68"/>
			</linearGradient>
			<path style="fill:url(#SVGID_00000058553155046813806170000000426031901306861738_);" d="M31.7,31.2c-1.1,7.1-7.3,12.6-14.7,12.6
				C8.8,43.9,2.1,37.2,2.1,29S8.8,14.1,17,14.1c2.1,0,4.1,0.5,6,1.3c0-0.7,0.2-1.4,0.4-2.1c-2-0.8-4.1-1.3-6.4-1.3
				C7.6,12,0,19.6,0,29s7.6,17,17,17c8.3,0,15.3-6.1,16.7-14C32.9,31.8,32.2,31.6,31.7,31.2z"/>
		</g>
	</g>
	<g>
		<g>
			<g>
				
					<linearGradient id="SVGID_00000013174993887552163880000009041160910232569235_" gradientUnits="userSpaceOnUse" x1="34.7871" y1="20.4835" x2="45.6032" y2="9.6675">
					<stop  offset="0" style="stop-color:#5E338A"/>
					<stop  offset="0.2001" style="stop-color:#5E338A"/>
					<stop  offset="0.2838" style="stop-color:#722A81"/>
					<stop  offset="0.4892" style="stop-color:#9F2274"/>
					<stop  offset="0.6474" style="stop-color:#BB1E6A"/>
					<stop  offset="0.7384" style="stop-color:#C71D68"/>
					<stop  offset="1" style="stop-color:#C71D68"/>
				</linearGradient>
				<path style="fill:url(#SVGID_00000013174993887552163880000009041160910232569235_);" d="M34.6,8.4h9.7v0c-0.6,1-0.9,1.5-1,1.6
					h-2.6c0.4,0.5,0.6,1.1,0.7,1.7h2.8c0,0,0,0,0,0c-0.6,1.1-0.9,1.6-1,1.6h-1.8c0,0.5-0.3,1.2-0.7,2c-0.6,0.8-1.1,1.3-1.6,1.5
					c-0.9,0.5-1.8,0.8-2.7,0.8v0c0,0.1,0.2,0.4,0.6,0.9l4.8,6.6v0.3c0,0,0,0,0,0h-2.1c-3.8-5-5.7-7.6-5.7-7.6v-1.5l0-0.1
					c0.3,0.1,0.7,0.1,1.2,0.1c2.1,0,3.5-0.8,4-2.4c0.1-0.2,0.1-0.5,0.1-0.7h-5.8c0,0,0,0,0-0.1c0.6-1.1,1-1.6,1-1.6h4.6v0
					c-0.3-0.6-0.8-1.1-1.5-1.4c-0.5-0.2-1-0.3-1.5-0.3h-2.6V10C34.3,8.9,34.6,8.4,34.6,8.4z"/>
			</g>
		</g>
		<g>
			
				<linearGradient id="SVGID_00000034801702819521688320000003150108673903746223_" gradientUnits="userSpaceOnUse" x1="26.9778" y1="28.9747" x2="50.9747" y2="4.9778">
				<stop  offset="0" style="stop-color:#5E338A"/>
				<stop  offset="0.2001" style="stop-color:#5E338A"/>
				<stop  offset="0.2838" style="stop-color:#722A81"/>
				<stop  offset="0.4892" style="stop-color:#9F2274"/>
				<stop  offset="0.6474" style="stop-color:#BB1E6A"/>
				<stop  offset="0.7384" style="stop-color:#C71D68"/>
				<stop  offset="1" style="stop-color:#C71D68"/>
			</linearGradient>
			<path style="fill:url(#SVGID_00000034801702819521688320000003150108673903746223_);" d="M39,34c-9.4,0-17-7.6-17-17S29.6,0,39,0
				s17,7.6,17,17S48.3,34,39,34z M39,2.1c-8.2,0-14.9,6.7-14.9,14.9S30.8,31.9,39,31.9S53.9,25.2,53.9,17S47.2,2.1,39,2.1z"/>
		</g>
	</g>
</g>
</svg>
