<?xml version="1.0" encoding="utf-8"?>
<!-- Generator: Adobe Illustrator 27.2.0, SVG Export Plug-In . SVG Version: 6.00 Build 0)  -->
<svg version="1.1" id="Layer_1" xmlns="http://www.w3.org/2000/svg" xmlns:xlink="http://www.w3.org/1999/xlink" x="0px" y="0px"
	 viewBox="0 0 34 49.5" style="enable-background:new 0 0 34 49.5;" xml:space="preserve">
<style type="text/css">
	.st0{fill:url(#SVGID_1_);}
	.st1{fill:url(#SVGID_00000109732132197542577510000011976325282559273151_);}
	.st2{fill:url(#SVGID_00000117662595635457191220000004568429302107663034_);}
	.st3{fill:url(#SVGID_00000107571223697080455710000011236950546270320781_);}
	.st4{fill:url(#SVGID_00000083052046343306110540000007660004511039779978_);}
</style>
<g>
	<g>
		<g>
			<linearGradient id="SVGID_1_" gradientUnits="userSpaceOnUse" x1="12.7871" y1="35.9812" x2="23.6031" y2="25.1652">
				<stop  offset="0" style="stop-color:#5E338A"/>
				<stop  offset="0.2001" style="stop-color:#5E338A"/>
				<stop  offset="0.2838" style="stop-color:#722A81"/>
				<stop  offset="0.4892" style="stop-color:#9F2274"/>
				<stop  offset="0.6474" style="stop-color:#BB1E6A"/>
				<stop  offset="0.7384" style="stop-color:#C71D68"/>
				<stop  offset="1" style="stop-color:#C71D68"/>
			</linearGradient>
			<path class="st0" d="M12.6,23.9h9.7v0c-0.6,1-0.9,1.5-1,1.6h-2.6c0.4,0.5,0.6,1.1,0.7,1.7h2.8c0,0,0,0,0,0
				c-0.6,1.1-0.9,1.6-1,1.6h-1.8c0,0.5-0.3,1.2-0.7,2c-0.6,0.8-1.1,1.3-1.6,1.5c-0.9,0.5-1.8,0.8-2.7,0.8v0c0,0.1,0.2,0.4,0.6,0.9
				l4.8,6.6V41c0,0,0,0,0,0h-2.1c-3.8-5-5.7-7.6-5.7-7.6v-1.5l0-0.1c0.3,0.1,0.7,0.1,1.2,0.1c2.1,0,3.5-0.8,4-2.4
				c0.1-0.2,0.1-0.5,0.1-0.7h-5.8c0,0,0,0,0-0.1c0.6-1.1,1-1.6,1-1.6h4.6v0c-0.3-0.6-0.8-1.1-1.5-1.4c-0.5-0.2-1-0.3-1.5-0.3h-2.6
				v-0.1C12.3,24.4,12.6,23.9,12.6,23.9z"/>
		</g>
	</g>
	<g>
		
			<linearGradient id="SVGID_00000131354215435461098500000012938091361483974319_" gradientUnits="userSpaceOnUse" x1="4.9778" y1="44.4724" x2="28.9747" y2="20.4755">
			<stop  offset="0" style="stop-color:#5E338A"/>
			<stop  offset="0.2001" style="stop-color:#5E338A"/>
			<stop  offset="0.2838" style="stop-color:#722A81"/>
			<stop  offset="0.4892" style="stop-color:#9F2274"/>
			<stop  offset="0.6474" style="stop-color:#BB1E6A"/>
			<stop  offset="0.7384" style="stop-color:#C71D68"/>
			<stop  offset="1" style="stop-color:#C71D68"/>
		</linearGradient>
		<path style="fill:url(#SVGID_00000131354215435461098500000012938091361483974319_);" d="M17,49.5c-9.4,0-17-7.6-17-17
			s7.6-17,17-17s17,7.6,17,17S26.3,49.5,17,49.5z M17,17.6c-8.2,0-14.9,6.7-14.9,14.9S8.8,47.4,17,47.4s14.9-6.7,14.9-14.9
			S25.2,17.6,17,17.6z"/>
	</g>
	<g>
		
			<linearGradient id="SVGID_00000044146067024195876620000006445921782909556114_" gradientUnits="userSpaceOnUse" x1="13.4671" y1="9.8004" x2="20.2896" y2="2.9779">
			<stop  offset="0" style="stop-color:#5E338A"/>
			<stop  offset="0.2001" style="stop-color:#5E338A"/>
			<stop  offset="0.2838" style="stop-color:#722A81"/>
			<stop  offset="0.4892" style="stop-color:#9F2274"/>
			<stop  offset="0.6474" style="stop-color:#BB1E6A"/>
			<stop  offset="0.7384" style="stop-color:#C71D68"/>
			<stop  offset="1" style="stop-color:#C71D68"/>
		</linearGradient>
		<path style="fill:url(#SVGID_00000044146067024195876620000006445921782909556114_);" d="M16.9,12.8c-0.6,0-1-0.5-1-1V1
			c0-0.6,0.5-1,1-1s1,0.5,1,1v10.7C17.9,12.3,17.5,12.8,16.9,12.8z"/>
	</g>
	<g>
		
			<linearGradient id="SVGID_00000074423975665991983400000007053785589517924761_" gradientUnits="userSpaceOnUse" x1="23.8849" y1="12.7389" x2="30.1737" y2="6.4501">
			<stop  offset="0" style="stop-color:#5E338A"/>
			<stop  offset="0.2001" style="stop-color:#5E338A"/>
			<stop  offset="0.2838" style="stop-color:#722A81"/>
			<stop  offset="0.4892" style="stop-color:#9F2274"/>
			<stop  offset="0.6474" style="stop-color:#BB1E6A"/>
			<stop  offset="0.7384" style="stop-color:#C71D68"/>
			<stop  offset="1" style="stop-color:#C71D68"/>
		</linearGradient>
		<path style="fill:url(#SVGID_00000074423975665991983400000007053785589517924761_);" d="M25.4,13.8c-0.2,0-0.3,0-0.5-0.1
			c-0.5-0.3-0.7-0.9-0.5-1.4l3.2-6.4c0.3-0.5,0.9-0.7,1.4-0.5c0.5,0.3,0.7,0.9,0.5,1.4l-3.2,6.4C26.2,13.6,25.8,13.8,25.4,13.8z"/>
	</g>
	<g>
		
			<linearGradient id="SVGID_00000054946700918408996900000012155897862551233200_" gradientUnits="userSpaceOnUse" x1="5.7199" y1="11.136" x2="8.8031" y2="8.0528">
			<stop  offset="0" style="stop-color:#5E338A"/>
			<stop  offset="0.2001" style="stop-color:#5E338A"/>
			<stop  offset="0.2838" style="stop-color:#722A81"/>
			<stop  offset="0.4892" style="stop-color:#9F2274"/>
			<stop  offset="0.6474" style="stop-color:#BB1E6A"/>
			<stop  offset="0.7384" style="stop-color:#C71D68"/>
			<stop  offset="1" style="stop-color:#C71D68"/>
		</linearGradient>
		<path style="fill:url(#SVGID_00000054946700918408996900000012155897862551233200_);" d="M8.9,13.8c-0.4,0-0.8-0.2-0.9-0.6
			L4.7,6.9c-0.3-0.5,0-1.1,0.5-1.4c0.5-0.3,1.1,0,1.4,0.5l3.2,6.4c0.3,0.5,0,1.1-0.5,1.4C9.2,13.8,9,13.8,8.9,13.8z"/>
	</g>
</g>
</svg>
