<?xml version="1.0" encoding="utf-8"?>
<!-- Generator: Adobe Illustrator 27.2.0, SVG Export Plug-In . SVG Version: 6.00 Build 0)  -->
<svg version="1.1" id="Layer_1" xmlns="http://www.w3.org/2000/svg" xmlns:xlink="http://www.w3.org/1999/xlink" x="0px" y="0px"
	 viewBox="0 0 73.7 77.6" style="enable-background:new 0 0 73.7 77.6;" xml:space="preserve">
<style type="text/css">
	.st0{fill:url(#SVGID_1_);}
	.st1{fill:url(#SVGID_00000055693453051706580370000017831259344551161994_);}
	.st2{fill:url(#SVGID_00000070078508675519659280000016469997573464917659_);}
</style>
<g>
	<g>
		<g>
			<g>
				<linearGradient id="SVGID_1_" gradientUnits="userSpaceOnUse" x1="32.1747" y1="20.4835" x2="42.9908" y2="9.6675">
					<stop  offset="0" style="stop-color:#5E338A"/>
					<stop  offset="0.2001" style="stop-color:#5E338A"/>
					<stop  offset="0.2838" style="stop-color:#722A81"/>
					<stop  offset="0.4892" style="stop-color:#9F2274"/>
					<stop  offset="0.6474" style="stop-color:#BB1E6A"/>
					<stop  offset="0.7384" style="stop-color:#C71D68"/>
					<stop  offset="1" style="stop-color:#C71D68"/>
				</linearGradient>
				<path class="st0" d="M32,8.4h9.7v0c-0.6,1-0.9,1.5-1,1.6h-2.6c0.4,0.5,0.6,1.1,0.7,1.7h2.8c0,0,0,0,0,0c-0.6,1.1-0.9,1.6-1,1.6
					H39c0,0.5-0.3,1.2-0.7,2c-0.6,0.8-1.1,1.3-1.6,1.5c-0.9,0.5-1.8,0.8-2.7,0.8v0c0,0.1,0.2,0.4,0.6,0.9l4.8,6.6v0.3c0,0,0,0,0,0
					h-2.1c-3.8-5-5.7-7.6-5.7-7.6v-1.5l0-0.1c0.3,0.1,0.7,0.1,1.2,0.1c2.1,0,3.5-0.8,4-2.4c0.1-0.2,0.1-0.5,0.1-0.7h-5.8
					c0,0,0,0,0-0.1c0.6-1.1,1-1.6,1-1.6h4.6v0c-0.3-0.6-0.8-1.1-1.5-1.4c-0.5-0.2-1-0.3-1.5-0.3H31V10C31.6,8.9,32,8.4,32,8.4z"/>
			</g>
		</g>
		<g>
			
				<linearGradient id="SVGID_00000007428079211341600060000003558041199860415143_" gradientUnits="userSpaceOnUse" x1="24.3654" y1="28.9747" x2="48.3624" y2="4.9778">
				<stop  offset="0" style="stop-color:#5E338A"/>
				<stop  offset="0.2001" style="stop-color:#5E338A"/>
				<stop  offset="0.2838" style="stop-color:#722A81"/>
				<stop  offset="0.4892" style="stop-color:#9F2274"/>
				<stop  offset="0.6474" style="stop-color:#BB1E6A"/>
				<stop  offset="0.7384" style="stop-color:#C71D68"/>
				<stop  offset="1" style="stop-color:#C71D68"/>
			</linearGradient>
			<path style="fill:url(#SVGID_00000007428079211341600060000003558041199860415143_);" d="M36.4,34c-9.4,0-17-7.6-17-17
				S27,0,36.4,0s17,7.6,17,17S45.7,34,36.4,34z M36.4,2.1c-8.2,0-14.9,6.7-14.9,14.9s6.7,14.9,14.9,14.9S51.2,25.2,51.2,17
				S44.6,2.1,36.4,2.1z"/>
		</g>
	</g>
	
		<linearGradient id="SVGID_00000106851457468508627120000016521912825611707816_" gradientUnits="userSpaceOnUse" x1="13.643" y1="85.6234" x2="60.022" y2="39.2444">
		<stop  offset="0" style="stop-color:#5E338A"/>
		<stop  offset="0.2001" style="stop-color:#5E338A"/>
		<stop  offset="0.2838" style="stop-color:#722A81"/>
		<stop  offset="0.4892" style="stop-color:#9F2274"/>
		<stop  offset="0.6474" style="stop-color:#BB1E6A"/>
		<stop  offset="0.7384" style="stop-color:#C71D68"/>
		<stop  offset="1" style="stop-color:#C71D68"/>
	</linearGradient>
	<path style="fill:url(#SVGID_00000106851457468508627120000016521912825611707816_);" d="M8.6,51.7v-7c0-0.6,0.5-1.2,1.2-1.2h25.9
		v-5.4c0-0.6,0.5-1.2,1.2-1.2c0.6,0,1.2,0.5,1.2,1.2l0,5.4h25.9c0.6,0,1.2,0.5,1.2,1.2v7c0,0.6-0.5,1.2-1.2,1.2s-1.2-0.5-1.2-1.2
		v-5.8H38v5.8c0,0.6-0.5,1.2-1.2,1.2c-0.6,0-1.2-0.5-1.2-1.2v-5.8H10.9v5.8c0,0.6-0.5,1.2-1.2,1.2C9.1,52.9,8.6,52.4,8.6,51.7
		L8.6,51.7z M46.6,61.6v9.9c0,0.4-0.2,0.8-0.6,1l-8.6,5c-0.2,0.1-0.4,0.2-0.6,0.2c-0.2,0-0.4-0.1-0.6-0.2l-8.6-5
		c-0.4-0.2-0.6-0.6-0.6-1l0-9.9c0-0.4,0.2-0.8,0.6-1l8.6-5c0.4-0.2,0.8-0.2,1.2,0l8.6,5C46.4,60.8,46.6,61.2,46.6,61.6L46.6,61.6z
		 M30.5,61.6l6.3,3.6l6.3-3.6l-6.3-3.6L30.5,61.6z M29.4,70.8l6.3,3.6v-7.3l-6.3-3.6V70.8z M44.3,70.8v-7.3L38,67.2v7.3L44.3,70.8z
		 M19.5,61.6v9.9c0,0.4-0.2,0.8-0.6,1l-8.6,5c-0.2,0.1-0.4,0.2-0.6,0.2c-0.2,0-0.4-0.1-0.6-0.2l-8.6-5c-0.4-0.2-0.6-0.6-0.6-1v-9.9
		c0-0.4,0.2-0.8,0.6-1l8.6-5c0.4-0.2,0.8-0.2,1.2,0l8.6,5C19.3,60.8,19.5,61.2,19.5,61.6L19.5,61.6z M3.5,61.6l6.3,3.6l6.3-3.6
		l-6.3-3.6L3.5,61.6z M2.3,70.8l6.3,3.6v-7.3l-6.3-3.6L2.3,70.8z M17.2,70.8v-7.3l-6.3,3.6v7.3L17.2,70.8z M73.7,61.6v9.9
		c0,0.4-0.2,0.8-0.6,1l-8.6,5c-0.2,0.1-0.4,0.2-0.6,0.2c-0.2,0-0.4-0.1-0.6-0.2l-8.6-5c-0.4-0.2-0.6-0.6-0.6-1l0-9.9
		c0-0.4,0.2-0.8,0.6-1l8.6-5c0.4-0.2,0.8-0.2,1.2,0l8.6,5C73.4,60.8,73.7,61.2,73.7,61.6L73.7,61.6z M57.6,61.6l6.3,3.6l6.3-3.6
		l-6.3-3.6L57.6,61.6z M56.5,70.8l6.3,3.6v-7.3l-6.3-3.6L56.5,70.8z M71.4,70.8v-7.3l-6.3,3.6v7.3L71.4,70.8z"/>
</g>
</svg>
