<?xml version="1.0" encoding="utf-8"?>
<!-- Generator: Adobe Illustrator 27.2.0, SVG Export Plug-In . SVG Version: 6.00 Build 0)  -->
<svg version="1.1" id="Layer_1" xmlns="http://www.w3.org/2000/svg" xmlns:xlink="http://www.w3.org/1999/xlink" x="0px" y="0px"
	 viewBox="0 0 73.7 73.7" style="enable-background:new 0 0 73.7 73.7;" xml:space="preserve">
<style type="text/css">
	.st0{fill:url(#SVGID_1_);}
</style>
<linearGradient id="SVGID_1_" gradientUnits="userSpaceOnUse" x1="9.3358" y1="77.3638" x2="64.3278" y2="22.3719">
	<stop  offset="0" style="stop-color:#5E338A"/>
	<stop  offset="0.2001" style="stop-color:#5E338A"/>
	<stop  offset="0.2838" style="stop-color:#722A81"/>
	<stop  offset="0.4892" style="stop-color:#9F2274"/>
	<stop  offset="0.6474" style="stop-color:#BB1E6A"/>
	<stop  offset="0.7384" style="stop-color:#C71D68"/>
	<stop  offset="1" style="stop-color:#C71D68"/>
</linearGradient>
<path class="st0" d="M8.6,47.8v-7c0-0.6,0.5-1.2,1.2-1.2h25.9v-5.4c0-0.6,0.5-1.2,1.2-1.2c0.6,0,1.2,0.5,1.2,1.2l0,5.4h25.9
	c0.6,0,1.2,0.5,1.2,1.2v7c0,0.6-0.5,1.2-1.2,1.2s-1.2-0.5-1.2-1.2V42H38v5.8c0,0.6-0.5,1.2-1.2,1.2c-0.6,0-1.2-0.5-1.2-1.2V42H10.9
	v5.8c0,0.6-0.5,1.2-1.2,1.2C9.1,48.9,8.6,48.4,8.6,47.8L8.6,47.8z M46.6,57.6v9.9c0,0.4-0.2,0.8-0.6,1l-8.6,5
	c-0.2,0.1-0.4,0.2-0.6,0.2c-0.2,0-0.4-0.1-0.6-0.2l-8.6-5c-0.4-0.2-0.6-0.6-0.6-1l0-9.9c0-0.4,0.2-0.8,0.6-1l8.6-5
	c0.4-0.2,0.8-0.2,1.2,0l8.6,5C46.4,56.8,46.6,57.2,46.6,57.6L46.6,57.6z M30.5,57.6l6.3,3.6l6.3-3.6L36.8,54L30.5,57.6z M29.4,66.9
	l6.3,3.6v-7.3l-6.3-3.6V66.9z M44.3,66.9v-7.3L38,63.3v7.3L44.3,66.9z M19.5,57.6v9.9c0,0.4-0.2,0.8-0.6,1l-8.6,5
	c-0.2,0.1-0.4,0.2-0.6,0.2c-0.2,0-0.4-0.1-0.6-0.2l-8.6-5C0.2,68.3,0,68,0,67.6v-9.9c0-0.4,0.2-0.8,0.6-1l8.6-5
	c0.4-0.2,0.8-0.2,1.2,0l8.6,5C19.3,56.8,19.5,57.2,19.5,57.6L19.5,57.6z M3.5,57.6l6.3,3.6l6.3-3.6L9.7,54L3.5,57.6z M2.3,66.9
	l6.3,3.6v-7.3l-6.3-3.6L2.3,66.9z M17.2,66.9v-7.3l-6.3,3.6v7.3L17.2,66.9z M73.7,57.6v9.9c0,0.4-0.2,0.8-0.6,1l-8.6,5
	c-0.2,0.1-0.4,0.2-0.6,0.2c-0.2,0-0.4-0.1-0.6-0.2l-8.6-5c-0.4-0.2-0.6-0.6-0.6-1l0-9.9c0-0.4,0.2-0.8,0.6-1l8.6-5
	c0.4-0.2,0.8-0.2,1.2,0l8.6,5C73.4,56.8,73.7,57.2,73.7,57.6L73.7,57.6z M57.6,57.6l6.3,3.6l6.3-3.6L63.9,54L57.6,57.6z M56.5,66.9
	l6.3,3.6v-7.3l-6.3-3.6L56.5,66.9z M71.4,66.9v-7.3l-6.3,3.6v7.3L71.4,66.9z M24.7,20.2V7.5c0-0.4,0.2-0.8,0.6-1l11-6.4
	c0.4-0.2,0.8-0.2,1.2,0l11,6.4c0.4,0.2,0.6,0.6,0.6,1v12.7c0,0.4-0.2,0.8-0.6,1l-11,6.3c-0.2,0.1-0.4,0.2-0.6,0.2
	c-0.2,0-0.4-0.1-0.6-0.2l-11-6.3C24.9,21,24.7,20.6,24.7,20.2L24.7,20.2z M27,19.5l8.7,5l0-10l-8.7-5L27,19.5z M46.7,19.5v-10
	l-8.7,5l0,10L46.7,19.5z M28.1,7.5l8.7,5l8.7-5l-8.7-5L28.1,7.5z"/>
</svg>
