<?xml version="1.0" encoding="utf-8"?>
<!-- Generator: Adobe Illustrator 27.2.0, SVG Export Plug-In . SVG Version: 6.00 Build 0)  -->
<svg version="1.1" id="Layer_1" xmlns="http://www.w3.org/2000/svg" xmlns:xlink="http://www.w3.org/1999/xlink" x="0px" y="0px"
	 viewBox="0 0 51 49.5" style="enable-background:new 0 0 51 49.5;" xml:space="preserve">
<style type="text/css">
	.st0{fill:url(#SVGID_1_);}
	.st1{fill:url(#SVGID_00000181088092713592666920000017469627252284627390_);}
	.st2{fill:url(#SVGID_00000022562039964815747200000011901010688956839322_);}
	.st3{fill:url(#SVGID_00000159430667144006081790000012926084551909724348_);}
	.st4{fill:url(#SVGID_00000002370961841592554680000006835259677137860258_);}
</style>
<g>
	<g>
		<linearGradient id="SVGID_1_" gradientUnits="userSpaceOnUse" x1="21.1402" y1="9.8004" x2="27.9627" y2="2.9779">
			<stop  offset="0" style="stop-color:#5E338A"/>
			<stop  offset="0.2001" style="stop-color:#5E338A"/>
			<stop  offset="0.2838" style="stop-color:#722A81"/>
			<stop  offset="0.4892" style="stop-color:#9F2274"/>
			<stop  offset="0.6474" style="stop-color:#BB1E6A"/>
			<stop  offset="0.7384" style="stop-color:#C71D68"/>
			<stop  offset="1" style="stop-color:#C71D68"/>
		</linearGradient>
		<path class="st0" d="M24.6,12.8c-0.6,0-1-0.5-1-1V1c0-0.6,0.5-1,1-1c0.6,0,1,0.5,1,1v10.7C25.6,12.3,25.1,12.8,24.6,12.8z"/>
	</g>
	<g>
		
			<linearGradient id="SVGID_00000112618915246960267220000011904331027204680342_" gradientUnits="userSpaceOnUse" x1="31.5581" y1="12.7389" x2="37.8469" y2="6.4501">
			<stop  offset="0" style="stop-color:#5E338A"/>
			<stop  offset="0.2001" style="stop-color:#5E338A"/>
			<stop  offset="0.2838" style="stop-color:#722A81"/>
			<stop  offset="0.4892" style="stop-color:#9F2274"/>
			<stop  offset="0.6474" style="stop-color:#BB1E6A"/>
			<stop  offset="0.7384" style="stop-color:#C71D68"/>
			<stop  offset="1" style="stop-color:#C71D68"/>
		</linearGradient>
		<path style="fill:url(#SVGID_00000112618915246960267220000011904331027204680342_);" d="M33.1,13.8c-0.2,0-0.3,0-0.5-0.1
			c-0.5-0.3-0.7-0.9-0.5-1.4l3.2-6.4c0.3-0.5,0.9-0.7,1.4-0.5c0.5,0.3,0.7,0.9,0.5,1.4L34,13.3C33.9,13.6,33.5,13.8,33.1,13.8z"/>
	</g>
	<g>
		
			<linearGradient id="SVGID_00000153664640186623377460000009546556054225783697_" gradientUnits="userSpaceOnUse" x1="13.393" y1="11.136" x2="16.4763" y2="8.0528">
			<stop  offset="0" style="stop-color:#5E338A"/>
			<stop  offset="0.2001" style="stop-color:#5E338A"/>
			<stop  offset="0.2838" style="stop-color:#722A81"/>
			<stop  offset="0.4892" style="stop-color:#9F2274"/>
			<stop  offset="0.6474" style="stop-color:#BB1E6A"/>
			<stop  offset="0.7384" style="stop-color:#C71D68"/>
			<stop  offset="1" style="stop-color:#C71D68"/>
		</linearGradient>
		<path style="fill:url(#SVGID_00000153664640186623377460000009546556054225783697_);" d="M16.5,13.8c-0.4,0-0.8-0.2-0.9-0.6
			l-3.2-6.4c-0.3-0.5,0-1.1,0.5-1.4c0.5-0.3,1.1,0,1.4,0.5l3.2,6.4c0.3,0.5,0,1.1-0.5,1.4C16.9,13.8,16.7,13.8,16.5,13.8z"/>
	</g>
	<g>
		
			<linearGradient id="SVGID_00000118367437653560065720000014621959972774464131_" gradientUnits="userSpaceOnUse" x1="20.4602" y1="35.9812" x2="31.2762" y2="25.1652">
			<stop  offset="0" style="stop-color:#5E338A"/>
			<stop  offset="0.2001" style="stop-color:#5E338A"/>
			<stop  offset="0.2838" style="stop-color:#722A81"/>
			<stop  offset="0.4892" style="stop-color:#9F2274"/>
			<stop  offset="0.6474" style="stop-color:#BB1E6A"/>
			<stop  offset="0.7384" style="stop-color:#C71D68"/>
			<stop  offset="1" style="stop-color:#C71D68"/>
		</linearGradient>
		<path style="fill:url(#SVGID_00000118367437653560065720000014621959972774464131_);" d="M19.3,25.5L19.3,25.5l2.6,0.1
			c0.4,0,0.9,0.1,1.5,0.3c0.7,0.3,1.3,0.8,1.5,1.4v0h-4.6c0,0-0.3,0.5-1,1.6c0,0,0,0.1,0,0.1h5.8c0,0.2,0,0.5-0.1,0.7
			c-0.5,1.6-1.9,2.4-4,2.4c-0.5,0-0.8,0-1.2-0.1l0,0.1v1.5c0,0,1.9,2.5,5.7,7.6h2.1c0,0,0,0,0,0v-0.3l-4.8-6.6
			c-0.4-0.6-0.6-0.9-0.6-0.9v0c0.9,0,1.8-0.3,2.7-0.8c0.5-0.2,1-0.7,1.6-1.5c0.4-0.8,0.6-1.4,0.7-2H29c0,0,0.3-0.5,1-1.6
			c0,0,0,0,0,0h-2.8c-0.1-0.7-0.4-1.3-0.7-1.7H29c0.1-0.1,0.4-0.6,1-1.6v0h-9.7C20.3,23.9,19.9,24.4,19.3,25.5z"/>
		
			<linearGradient id="SVGID_00000150085114645155246850000013364345983203433610_" gradientUnits="userSpaceOnUse" x1="10.169" y1="53.6192" x2="39.9803" y2="23.8079">
			<stop  offset="0" style="stop-color:#5E338A"/>
			<stop  offset="0.2001" style="stop-color:#5E338A"/>
			<stop  offset="0.2838" style="stop-color:#722A81"/>
			<stop  offset="0.4892" style="stop-color:#9F2274"/>
			<stop  offset="0.6474" style="stop-color:#BB1E6A"/>
			<stop  offset="0.7384" style="stop-color:#C71D68"/>
			<stop  offset="1" style="stop-color:#C71D68"/>
		</linearGradient>
		<path style="fill:url(#SVGID_00000150085114645155246850000013364345983203433610_);" d="M51,41.5H39c1.6-2.6,2.6-5.7,2.6-9
			c0-9.4-7.6-17-17-17c-9.4,0-17,7.6-17,17c0,3.3,1,6.4,2.6,9H0v2h11.7c3.1,3.7,7.8,6,12.9,6s9.8-2.3,12.9-6H51V41.5z M9.8,32.5
			c0-8.2,6.7-14.9,14.9-14.9s14.9,6.7,14.9,14.9c0,3.4-1.1,6.5-3,9H12.8C10.9,39,9.8,35.8,9.8,32.5z M24.6,47.4
			c-3.9,0-7.4-1.5-10-3.9h20C32,45.9,28.5,47.4,24.6,47.4z"/>
	</g>
</g>
</svg>
